<?xml version="1.0" encoding="UTF-8"?>
<svg width="24px" height="24px" viewBox="0 0 24 24" version="1.1" xmlns="http://www.w3.org/2000/svg" xmlns:xlink="http://www.w3.org/1999/xlink">
    <!-- Generator: Sketch 50.2 (55047) - http://www.bohemiancoding.com/sketch -->
    <title>Icon/hongkong</title>
    <desc>Created with Sketch.</desc>
    <defs></defs>
    <g id="Icon/hongkong" stroke="none" stroke-width="1" fill="none" fill-rule="evenodd">
        <g id="hong-kong" fill-rule="nonzero">
            <circle id="Oval" fill="#D80027" cx="12" cy="12" r="12"></circle>
            <g id="Group" transform="translate(6.234375, 5.812500)" fill="#F0F0F0">
                <path d="M7.00453125,3.2656875 C6.7318125,4.40001563 6.24726562,4.1836875 6.00946875,5.1729375 C4.60870312,4.83614062 3.74601562,3.42754687 4.0828125,2.0266875 C4.41946875,0.625921875 5.82820312,-0.236765625 7.22901562,0.10003125 C6.753375,2.07848437 7.24851562,2.25117187 7.00453125,3.2656875 Z" id="Shape"></path>
                <path d="M3.36970313,4.10625 C4.36425,4.71609375 4.00875,5.11017187 4.87603125,5.6420625 C4.12284375,6.87023437 2.51667188,7.2553125 1.28845313,6.50217188 C0.06028125,5.74903125 -0.324890625,4.14276563 0.428296875,2.91459375 C2.16295313,3.97828125 2.4800625,3.56076562 3.36970313,4.10625 Z" id="Shape"></path>
                <path d="M3.04584375,7.8230625 C3.93323438,7.06565625 4.19803125,7.5255 4.97189063,6.86503125 C5.90728125,7.96082813 5.77715625,9.60745313 4.68140625,10.5428437 C3.5855625,11.4782344 1.9389375,11.3479687 1.0036875,10.2522656 C2.55121875,8.9311875 2.25210937,8.50045313 3.04584375,7.8230625 Z" id="Shape"></path>
                <path d="M6.48065625,9.27960938 C6.03440625,8.201625 6.55359375,8.09175 6.16457813,7.15176563 C7.49578125,6.60084375 9.02165625,7.233375 9.572625,8.56457813 C10.1235469,9.89578125 9.49092188,11.4216094 8.15971875,11.9725781 C7.38173437,10.0924688 6.87975,10.2438281 6.48065625,9.27960938 Z" id="Shape"></path>
                <path d="M8.92734375,6.4629375 C7.76423438,6.55420312 7.8200625,6.02639062 6.80592188,6.10598437 C6.69328125,4.66978125 7.7664375,3.41395312 9.20273438,3.30121875 C10.6389844,3.18876562 11.8947656,4.26182812 12.0073594,5.69817187 C9.97875,5.85721875 9.96754688,6.38142187 8.92734375,6.4629375 Z" id="Shape"></path>
            </g>
        </g>
    </g>
</svg>