<?xml version="1.0" encoding="utf-8"?>
<!-- Generator: Adobe Illustrator 21.0.0, SVG Export Plug-In . SVG Version: 6.00 Build 0)  -->
<svg version="1.1" id="Layer_1" xmlns="http://www.w3.org/2000/svg" xmlns:xlink="http://www.w3.org/1999/xlink" x="0px" y="0px"
	 viewBox="0 0 98 98" style="enable-background:new 0 0 98 98;" xml:space="preserve">
<style type="text/css">
	.st0{fill:#E8E9EB;}
	.st1{fill:none;stroke:#E8E9EB;stroke-width:2;stroke-linecap:round;stroke-dasharray:34;}
	.st2{fill:#FFFFFF;stroke:#33006F;stroke-width:2.268;}
	.st3{fill:#FFFFFF;stroke:#33006F;stroke-width:2.34;stroke-linecap:round;stroke-linejoin:round;}
	.st4{fill:#FFA632;}
	.st5{fill:none;stroke:#33006F;stroke-width:2.34;stroke-linecap:round;stroke-linejoin:round;}
	.st6{fill:#FFA632;stroke:#33006F;stroke-width:2.34;stroke-linecap:round;stroke-linejoin:round;}
	.st7{fill:#FFFFFF;stroke:#33006F;stroke-width:2.6;stroke-linecap:round;stroke-linejoin:round;}
</style>
<g id="icon_x2F_architecture">
	<g id="Group-3" transform="translate(16.000000, 16.000000)">
		<circle id="Oval-4" class="st0" cx="32.5" cy="33.5" r="40.5"/>
		<path id="Oval-4-Copy" class="st1" d="M33,81c26.5,0,48-21.5,48-48S59.5-15,33-15S-15,6.5-15,33S6.5,81,33,81z"/>
		<g id="Group-2" transform="translate(9.000000, 19.000000)">
			<path id="Rectangle-2" class="st2" d="M-13.9-4.2h57.4c0.6,0,1.1,0.5,1.1,1.1v43.6c0,0.6-0.5,1.1-1.1,1.1h-57.4
				c-0.6,0-1.1-0.5-1.1-1.1V-3.1C-15-3.7-14.5-4.2-13.9-4.2z"/>
			<path id="Rectangle-2_1_" class="st3" d="M18.5,35.3H-5.7c-0.6,0-1.1-0.5-1.1-1.1v-31c0-0.6,0.5-1.1,1.1-1.1c2.5,0,4.6,0,6.1,0
				 M7.6,2.1c4.8,0,12.3,0,27.8,0c0.6,0,1.1,0.5,1.1,1.1v15"/>
			<path id="Rectangle-2_2_" class="st2" d="M50.4-10.5h9.5c0.6,0,1.1,0.5,1.1,1.1v55.2c0,0.6-0.5,1.1-1.1,1.1h-9.5
				c-0.6,0-1.1-0.5-1.1-1.1V-9.4C49.2-10,49.7-10.5,50.4-10.5z"/>
			<g id="Group" transform="translate(9.047619, 0.000000)">
				<path id="Rectangle-2_3_" class="st4" d="M-7.2-10.7v-3.2c0-0.6,0.5-1.1,1.1-1.1h26.5c0.6,0,1.1,0.5,1.1,1.1v3.2
					c0,0.6-0.5,1.1-1.1,1.1H-6.1C-6.7-9.6-7.2-10.1-7.2-10.7z"/>
				<path id="Rectangle-2_4_" class="st5" d="M-11.1-9.8l-3.3-2.4l3.3-2.5c0.2-0.2,0.4-0.2,0.7-0.2h35.3c0.6,0,1.1,0.5,1.1,1.1v3.2
					c0,0.6-0.5,1.1-1.1,1.1h-35.3C-10.7-9.6-10.9-9.7-11.1-9.8z"/>
				<path id="Line" class="st3" d="M-7.8-14.1v3.6"/>
				<path id="Line_1_" class="st3" d="M21.2-14.1v3.6"/>
			</g>
			<polygon id="Path-18" class="st6" points="22.1,35.3 54.7,35.3 54.7,5.7 			"/>
			<polygon id="Path-18_1_" class="st3" points="34.8,29.9 50.1,29.9 50.1,16.4 			"/>
			<path id="Line-2" class="st3" d="M14.9,35.3V2.1"/>
			<path id="Line-2_1_" class="st3" d="M-6,18.2h33.5"/>
			<rect id="Rectangle-7" x="0.4" y="26.3" class="st3" width="8.1" height="9"/>
		</g>
		<path id="Line-3" class="st7" d="M65,11h4"/>
		<path id="Line-3_1_" class="st7" d="M65,21h4"/>
		<path id="Line-3_2_" class="st7" d="M67,16h2"/>
		<path id="Line-3_3_" class="st7" d="M65,31h4"/>
		<path id="Line-3_4_" class="st7" d="M67,26h2"/>
		<path id="Line-3_5_" class="st7" d="M65,41h4"/>
		<path id="Line-3_6_" class="st7" d="M67,36h2"/>
		<path id="Line-3_7_" class="st7" d="M65,51h4"/>
		<path id="Line-3_8_" class="st7" d="M67,46h2"/>
		<path id="Line-3_9_" class="st7" d="M65,61h4"/>
		<path id="Line-3_10_" class="st7" d="M67,56h2"/>
		<path id="Line-3_11_" class="st7" d="M67,66h2"/>
	</g>
</g>
</svg>
