<svg id="Layer_1" data-name="Layer 1" xmlns="http://www.w3.org/2000/svg" viewBox="0 0 128 44.67731"><title>Amnesty</title><path d="M121.08435,22.89078c.03072.13954.06475.27845.09158.41874.09285.48559.39377.63024.83106.38049.1981-.11314.37636-.261.56362-.39315l.09368.044c-.05409.21125-.09459.42719-.16538.63268-.11365.32992-.06083.51662.30373.67677a10.96957,10.96957,0,0,1,3.14715,1.95519c.06133.05723.258.03085.35309-.02381a2.65814,2.65814,0,0,0,.3819-.34c.023-.02021.06831-.01505.1554-.03136.12647.68778.04483,1.52864,1.15983,1.58643l-.1091.13292c-.16494.06141-.32684.13337-.49553.18167a.50474.50474,0,0,0-.42243.44839c-.21791,1.89931-1.50564,2.73151-3.177,3.17587-.37953.10091-.76245.19054-1.14666.27189-.25525.054-.28624.19493-.18833.40185.11688.247.23806.492.35737.73789l-.09549.08077c-.18118-.12987-.36969-.25072-.54218-.39125-.56224-.45807-.89753-.40549-1.29.20757-.14035.21922-.29014.43241-.43561.64835l-.11126-.03107c-.0814-.23845-.15416-.48031-.24667-.71435-.08726-.22076-.19-.45145-.4947-.39417-.30564.05744-.36214.29242-.36209.55857.00041,2.38692-.00576,4.77389.0123,7.16068a.60092.60092,0,0,0,.28322.47578.69375.69375,0,0,0,.57541-.16515,3.10831,3.10831,0,0,0,.41237-.72079,1.39774,1.39774,0,0,1,.13153.18238c.28421.59022.45866.702,1.06692.49987.83649-.27792,1.666-.58473,2.476-.93175.505-.21635.52052-.33974.38368-.873q-.07558-.29456-.14993-.58943l.08629-.072c.19653.14528.39824.28414.58856.43714.4439.35685.55849.32588.73822-.20963.04955-.14763.10747-.29244.20122-.54576.1579.22011.27811.362.36909.52067a.57138.57138,0,0,0,.56412.32419,2.63155,2.63155,0,0,1,.92786.15316c-.1482.12615-.28865.263-.446.37652-.5605.40422-.56253.40118-.413,1.05847a1.26243,1.26243,0,0,1,.00068.16c-.2084-.06293-.39882-.10327-.57539-.17688-.5914-.24657-.62031-.23789-.85882.35507-.03113.07737-.07361.15018-.14427.29242a3.13613,3.13613,0,0,1-.305-.38819.36149.36149,0,0,0-.49117-.19146c-1.01661.36275-2.03168.72983-3.04864,1.0916-.27134.09652-.3703.26338-.26006.54027a.52378.52378,0,0,1,.03647.18021c.0026.13853-.00481.27724-.00816.41588a1.99825,1.99825,0,0,1-.3665-.11332c-.51493-.27286-.63342-.23454-.86522.29266-.08305.1889-.18043.3715-.27127.557l-.12107-.03386c0-.17748.00709-.35533-.00191-.53235a2.14813,2.14813,0,0,0-.06367-.58192c-.04718-.13712-.19178-.24071-.293-.35921a1.17626,1.17626,0,0,0-.16347.3943c-.011,1.79628-.00707,3.59265-.0076,5.389-.00023.7495-.21109.953-.93382.8135-2.60352-.5026-5.20365-1.0227-7.80508-1.53614-.68689-.13557-1.37449-.2676-2.06046-.40766-.43007-.08781-.55349-.24159-.55542-.685-.00338-.77512.00146-1.55028-.00172-2.3254a.78161.78161,0,0,0-1.19776-.75734c-.19467.08812-.38781.17965-.57536.2667-.044-.07207-.0694-.094-.06751-.11333.06415-.65571-.3592-.89506-.87831-1.12058-1.013-.44006-1.99873-.94242-3.00732-1.3931a.87312.87312,0,0,0-.54342.02543,2.02241,2.02241,0,0,0-.45384.29659,1.99924,1.99924,0,0,1-.19-.48005.64416.64416,0,0,0-.65235-.6149c-.1884-.02516-.37293-.07923-.64466-.139a5.90938,5.90938,0,0,1,.41931-.58128.72981.72981,0,0,0,.173-.74632,2.61654,2.61654,0,0,1,1.14814-3.04893,16.1182,16.1182,0,0,1,2.137-1.14794.4833.4833,0,0,0,.30894-.667c-.06169-.20621-.10245-.41868-.15258-.62835l.10124-.08333c.20651.16967.42471.32712.61721.51141.48581.46509.58139.46289,1.02087-.05194a4.44225,4.44225,0,0,1,.35032-.32477,3.54036,3.54036,0,0,1,.088.34847c.06636.51248.06459.51269.58376.46938.0245-.002.04919-.00225.07361-.005,1.27526-.14106,1.34234-.21471,1.34234-1.47319V25.289l-.55618.44895a3.01233,3.01233,0,0,0-.38916-.49432.46564.46564,0,0,0-.38672-.06408c-.66172.2248-1.31719.46881-1.96985.71916-.49264.189-.97242.41243-1.4686.59084-.28629.10294-.35755.25041-.24833.52639a2.78563,2.78563,0,0,1,.08945.47739c-.21982-.08124-.36573-.13574-.512-.18913-.42089-.15358-.57832-.08962-.76014.30809a.71172.71172,0,0,1-.06206.13321c-.09777.13091-.201.25771-.30222.38608a2.92573,2.92573,0,0,1-.24983-.33488.54826.54826,0,0,0-.66432-.25552c-.321.05847-.64334.10986-.96509.16431l-.07586-.11742c.08946-.11.17372-.22491.27056-.328a.89539.89539,0,0,1,.18249-.12348c.81344-.51276.81909-.53471.37374-1.37205-.03886-.07307-.06642-.15215-.14865-.34333.25031.10453.41168.16164.56384.23729.5419.26945.79842.18538,1.06645-.3523.06292-.12623.14146-.24467.26887-.46254a4.40086,4.40086,0,0,1,.23808.52676c.08421.2945.25469.412.54888.31139,1.2194-.41692,2.43966-.83158,3.653-1.26568a.51419.51419,0,0,0,.24278-.32433,7.3146,7.3146,0,0,0,.12887-.81l1.13209.55062c0-.65084,0-1.20066,0-1.75049,0-.47985-.00338-.95972.0009-1.43953.0056-.628.2501-.87414.86783-.87509,1.13194-.00174,2.26394.00468,3.39579-.00529a3.48021,3.48021,0,0,0,.58633-.10378l.038-.13437a3.20877,3.20877,0,0,0-.46629-.34832c-.54855-.27566-1.11551-.51495-1.6621-.79422a5.23419,5.23419,0,0,1-2.37752-6.93054A7.00511,7.00511,0,0,1,110.32076,9.02a31.04835,31.04835,0,0,1,4.30109-2.63614c.39557-.22321.78625-.45854,1.16037-.71568a2.02051,2.02051,0,0,0,1.20557-2.00681c3.50529,2.39652,4.17771,5.98217,1.90508,8.9572a27.78549,27.78549,0,0,1-2.74765,2.76753,5.39278,5.39278,0,0,0-1.8,2.88929,3.81728,3.81728,0,0,0-.04882.58681c-.01066.65341.21571.89534.8733.90176,1.04572.01021,2.09162.00166,3.13743.005a.83707.83707,0,0,1,.93077.932c.00795.91041.00916,1.821-.00245,2.73135-.00287.22493.0659.31378.28959.37108.75308.19293.749.20392,1.16264-.48089.093-.15389.196-.30168.29444-.45227ZM111.437,34.80206c-.06407-.28807-.11176-.46056-.13986-.63619-.10384-.649-.27367-.76992-.91757-.64765a.38606.38606,0,0,0-.37288.44042c.00973,3.42983.005,6.8597.00731,10.28956.00031.45876.13112.61476.58065.70591,1.10687.22444,2.215.44277,3.32242.66456.81831.16388,1.63581.33185,2.45462.49318.51569.1016.71575-.05717.73908-.57522.00387-.08589.00132-.17208.00132-.25814q.0003-5.84551-.00013-11.691c0-.12264.03232-.27128-.02421-.3616-.0782-.1249-.23147-.29714-.34406-.29106-.82087.04432-1.64159.11239-2.4572.21431a.6215.6215,0,0,0-.39288.353c-.171.43287-.1491.44152-.57186.27768-.6654-.25786-.7659-.22865-1.22992.3145C111.90548,34.31237,111.70251,34.51622,111.437,34.80206Zm2.13755-3.40627a2.92226,2.92226,0,0,0,.14482.6126c.06322.12982.217.30912.328.30733.90622-.01453,1.81194-.06452,2.7176-.10822.27165-.01311.355-.15472.354-.43373-.0109-2.98908-.00578-5.97822-.00743-8.96735-.00041-.75195-.21764-.97118-.96287-.97218q-2.63854-.00354-5.2771-.00026c-.67315.00054-.85822.18362-.85839.84911q-.00127,4.92651-.00024,9.853v.42992c.36627-.02766.69581-.02924,1.017-.08174.6372-.10414.71089-.21077.68819-.85167-.00411-.11609-.00059-.23244-.00059-.43861.24484.17122.42719.28643.59554.41938a.4404.4404,0,0,0,.6769-.05069C113.15546,31.786,113.33726,31.62452,113.57453,31.39579ZM117.583,6.09523a10.44423,10.44423,0,0,1-.9517,1.21308c-.71138.67679-1.47152,1.3028-2.21889,1.94118a13.559,13.559,0,0,0-2.77495,2.93532,4.5894,4.5894,0,0,0,.24175,5.52424,4.5087,4.5087,0,0,0,1.14194.90369c.39693.23368.558.09589.54453-.36429-.00679-.233-.03247-.46671-.02058-.69862a6.29259,6.29259,0,0,1,.90681-2.77639c.71333-1.26094,1.48269-2.49009,2.22048-3.73733a8.44059,8.44059,0,0,0,1.28453-2.91464A2.598,2.598,0,0,0,117.583,6.09523ZM101.95584,37.72709a1.26284,1.26284,0,0,1,.02769.33644c-.11464.41568.02128.614.46621.62264.21851.00426.2939.16972.20884.37022-.14528.34247.00776.53059.30773.66563.93919.42281,1.87485.85353,2.81583,1.27232a4.36781,4.36781,0,0,0,.56089.16042l.07469-1.06409c.21591.31593.36347.55035.53016.77026.14976.1976.378.36314.59874.22123a.77973.77973,0,0,0,.32325-.54994c.0225-2.12674.01152-4.25381.01823-6.38076.0007-.22395-.09815-.33371-.297-.32785a5.32617,5.32617,0,0,0-.8759.08611c-.48284.0957-.49722.15056-.264.59833.03756.07211.0609.15162.12176.3064a2.73881,2.73881,0,0,1-.5412-.08582c-.3638-.14275-.70118-.226-.9671.16689-.00809.012-.04622.00358-.11878.00691a1.05331,1.05331,0,0,0-.11706-.35084c-.07651-.09678-.24362-.22586-.32474-.19929a5.96915,5.96915,0,0,0-2.80214,1.54355,2.1847,2.1847,0,0,0-.55622,1.8765c.06219.3686.19742.41079.48732.18663C101.7163,37.89456,101.804,37.83578,101.95584,37.72709Zm22.93775-8.6933-.0565-.1075a2.40272,2.40272,0,0,1,.18614-.28249c.39672-.45357.39356-.45115-.03712-.88547a.31925.31925,0,0,1-.06241-.29233c.28229-.38407.32483-.49122-.07533-.77166-.61737-.43267-1.29031-.78738-1.94777-1.16094-.31476-.17885-.47526-.01668-.5477.29557-.05024.21655-.11679.42932-.176.64378l-.11066.00218c-.08383-.11452-.17256-.2258-.25068-.3441-.4098-.62058-.71008-.68921-1.34507-.316a1.24665,1.24665,0,0,1-.297.0866,1.42817,1.42817,0,0,1-.07966-.34232c.00994-.61156-.209-.82663-.838-.79058a1.42493,1.42493,0,0,0-.01368.14217q-.00141,3.17155-.00069,6.34309a.954.954,0,0,0,.01566.2201c.05367.224.16852.38228.43094.36018a.37585.37585,0,0,0,.3887-.43526c-.00526-.17888-.001-.358-.001-.58154.35992.11309.708.33908.9978.27986.27529-.05625.48962-.41086.7559-.65758a1.69265,1.69265,0,0,1,.11934.31942.51683.51683,0,0,0,.64625.47772,4.91819,4.91819,0,0,0,2.9406-1.21167,1.701,1.701,0,0,0,.44118-.778c.098-.34474-.04462-.434-.39335-.34368C125.35736,28.96191,125.12378,28.99133,124.89359,29.03379Z" transform="translate(0 -3.66135)"/><path d="M22.86306,14.10844q-.60191,3.02886-1.20378,6.05773-.81467,4.1013-1.62544,8.20337a.2693.2693,0,0,1-.321.259c-.35638-.01151-.71377-.01312-1.07.0005-.20531.00785-.27115-.08-.30855-.26976q-1.36073-6.90279-2.73249-13.8034a.96835.96835,0,0,0-.1661-.4201V28.6029H12.60459V9.72533c.07525-.00683.15626-.0205.23729-.02061,1.23018-.00165,2.46046.00656,3.69047-.00823.26426-.00318.35685.08516.40843.33635q1.06344,5.17824,2.14578,10.35259c.0197.09469.055.18612.11036.36946.21812-1.04124.41917-1.99618.61812-2.95155.54325-2.60873,1.08329-5.21813,1.63679-7.82468.02227-.10486.16767-.26146.25719-.26247,1.32824-.015,2.65673-.008,3.98516-.00461.02122.00005.04239.0193.0809.038V28.6034H22.96154V14.1167Z" transform="translate(0 -3.66135)"/><path d="M38.692,28.62362c-.9014,0-1.78374.00856-2.66536-.013-.09024-.0022-.21666-.17021-.25786-.2857-.5729-1.606-1.13393-3.21626-1.69767-4.82554q-1.11326-3.178-2.22645-6.356a.41089.41089,0,0,0-.13888-.214V28.59621H28.76869V9.70312c.64877,0,1.29577-.00484,1.94265.00193.35255.00369.78552-.092,1.03393.07616.23362.15816.27807.60208.39594.92387q1.73484,4.736,3.46631,9.47325a.5196.5196,0,0,0,.142.231V9.73H38.692Z" transform="translate(0 -3.66135)"/><path d="M10.99418,28.6064H7.84989l-.57882-4.15415H3.73118c-.12551.89936-.253,1.80666-.3784,2.71424-.05548.40149-.0968.80533-.16739,1.20406-.01643.09281-.12478.24113-.1928.24223-.98134.01582-1.963.01082-2.99259.01082.118-.66639.22471-1.29257.34-1.91717Q1.87722,18.37595,3.4083,10.04435c.05336-.29231.1668-.34908.43034-.34616,1.08206.012,2.1648.02305,3.24627-.00506.36539-.0095.47392.11784.5345.45546.53564,2.98513,1.088,5.96727,1.63695,8.95q.83,4.50964,1.66214,9.01888C10.94689,28.27172,10.96671,28.42755,10.99418,28.6064ZM6.79258,21.56811,5.54384,13.66306l-.0884-.00024-1.2482,7.90529Z" transform="translate(0 -3.66135)"/><path d="M44.94633,12.538v4.86056H49.1v2.82691H44.953v5.5324h5.77274v2.83861H41.6891V9.73114h8.668V12.538Z" transform="translate(0 -3.66135)"/><path d="M51.69219,23.62055l3.03991-.43938a10.70885,10.70885,0,0,0,.22514,1.131,4.0626,4.0626,0,0,0,.44224,1.00314,1.64308,1.64308,0,0,0,1.988.62027,1.48576,1.48576,0,0,0,1.166-1.54791,4.30809,4.30809,0,0,0-.33247-1.45267,5.4103,5.4103,0,0,0-1.53665-1.86227c-.921-.81361-1.87737-1.59118-2.75432-2.44984a5.99242,5.99242,0,0,1-1.87035-5.458A4.12913,4.12913,0,0,1,55.83826,9.5216,5.931,5.931,0,0,1,58.36,9.62668a4.33309,4.33309,0,0,1,2.929,3.1931c.11083.37393.1646.76477.25789,1.21147l-3.098.34667c-.06468-.2862-.10939-.55167-.18534-.80789a1.615,1.615,0,0,0-1.85364-1.26017,1.38776,1.38776,0,0,0-1.22646,1.06529,2.38938,2.38938,0,0,0,.40446,2.23776c.60123.72329,1.29536,1.37126,1.96771,2.03307.90961.89537,1.9028,1.71508,2.74059,2.67191a5.49957,5.49957,0,0,1,1.3141,4.59924,4.37614,4.37614,0,0,1-3.909,3.86771,5.05515,5.05515,0,0,1-3.96922-.802A5.51633,5.51633,0,0,1,51.69219,23.62055Z" transform="translate(0 -3.66135)"/><path d="M72.56089,9.70283c1.08388,0,2.11533-.00862,3.14605.01473.09242.00209.22228.19764.26364.32622.51119,1.58872,1.00828,3.182,1.51094,4.77345.21355.67608.43167,1.35071.6791,2.12407.33348-1.10528.6358-2.10986.93973-3.11395.384-1.26854.77719-2.53438,1.14724-3.807a.37221.37221,0,0,1,.43444-.32293c.97023.0141,1.9408.0057,2.94937.0057a2.97889,2.97889,0,0,1-.07043.30057Q81.71287,15.2075,79.86689,20.412a2.21665,2.21665,0,0,0-.11731.71784c-.00835,2.34956-.00484,4.69917-.0047,7.04876v.42186H76.47207v-.44353c0-2.042-.026-4.08455.01207-6.12588a6.83108,6.83108,0,0,0-.439-2.51151c-1.1411-3.13643-2.249-6.28493-3.36839-9.42925C72.64034,9.98808,72.61416,9.88221,72.56089,9.70283Z" transform="translate(0 -3.66135)"/><path d="M65.38278,12.54085H62.275V9.72025h9.479V12.5375H68.64127V28.60168H65.38278Z" transform="translate(0 -3.66135)"/><path d="M65.17067,38.04674v6.89348H63.41042V33.54841c.5519,0,1.10341-.01641,1.6522.015.10023.00573.23.19113.27743.31907.68651,1.85288,1.36108,3.71018,2.03928,5.56614a.93924.93924,0,0,0,.21588.368V33.57249h1.78992V44.949c-.53294,0-1.06863.00979-1.603-.012-.06913-.00282-.15757-.16-.19327-.26114q-1.1216-3.17687-2.23212-6.35765c-.03216-.09172-.06841-.182-.10276-.273Z" transform="translate(0 -3.66135)"/><path d="M32.061,33.54948c.559,0,1.11-.0142,1.6588.0139.09217.00472.21241.17861.2565.29773.64772,1.75006,1.28438,3.5042,1.92463,5.257a3.6438,3.6438,0,0,0,.35583.76546V33.57508H38.023V44.94994c-.52275,0-1.05827.01-1.59247-.0119-.07207-.003-.1662-.15665-.20183-.25759q-1.09079-3.09023-2.16924-6.18481a1.31059,1.31059,0,0,0-.209-.41v6.83805H32.061Z" transform="translate(0 -3.66135)"/><path d="M5.88379,44.93788H4.11291V33.549c.563,0,1.11457-.01357,1.66409.01354.09016.00445.20819.17428.25142.29067Q7.092,36.71714,8.138,39.58753a.54355.54355,0,0,0,.15912.25373V33.57535h1.77943V44.933H8.37893L5.95567,38.03225l-.07188.01264Z" transform="translate(0 -3.66135)"/><path d="M27.39635,40.24516l-.98905.0645v4.6123H24.45681V33.54637c.1608,0,.31578-.00383.47053.00061,1.10383.03168,2.216-.00817,3.30916.11754a2.35291,2.35291,0,0,1,2.15985,2.09072,5.4521,5.4521,0,0,1-.10016,2.66055,2.068,2.068,0,0,1-.92452,1.24145c-.21442.12311-.20209.24634-.1375.44478.49351,1.51631.97688,3.03591,1.46286,4.55466.02578.08055.04668.16267.07785.27215H28.78052ZM26.29607,38.6834c.38976-.02448.75383-.04117,1.11673-.07168a.86724.86724,0,0,0,.86086-.77094,9.48,9.48,0,0,0,.00036-1.8561.82647.82647,0,0,0-.73149-.732c-.40326-.06813-.81754-.07109-1.24646-.10408Z" transform="translate(0 -3.66135)"/><path d="M62.07676,39.26839c0,.99589.00441,1.99181-.00094,2.98767a2.68109,2.68109,0,0,1-2.84977,2.83813,4.64649,4.64649,0,0,1-1.16641-.11973,2.59126,2.59126,0,0,1-1.98115-2.64986c-.02073-2.053-.0413-4.10728.00569-6.15947a2.73092,2.73092,0,0,1,3.146-2.7755,4.00276,4.00276,0,0,1,.97839.156,2.61342,2.61342,0,0,1,1.866,2.62443C62.0853,37.20275,62.07673,38.23562,62.07676,39.26839Zm-4.0224-.03992c0,1.04389-.01218,2.088.00435,3.13161a.90166.90166,0,0,0,.94723,1.02984c.67476.03486.9901-.22724,1.089-.91691a3.39517,3.39517,0,0,0,.02493-.47768q.00247-2.74482-.00115-5.48965a3.59059,3.59059,0,0,0-.05247-.622.8026.8026,0,0,0-.91014-.76194c-.67207-.01477-.92572.15433-1.05106.72258a2.43758,2.43758,0,0,0-.04928.51037C58.05131,37.31262,58.05364,38.27055,58.05436,39.22847Z" transform="translate(0 -3.66135)"/><path d="M77.1308,44.93234H75.22094l-.34768-2.47685H72.74818l-.35095,2.477H70.49533c.12127-.67444.23712-1.33321.35843-1.991.55413-3.00467,1.11388-6.00832,1.65809-9.01479.05056-.27934.13285-.39732.43623-.38743.686.02235,1.37312.007,2.0851.007C75.733,37.34507,76.42842,41.11982,77.1308,44.93234Zm-3.28531-8.91042L73.775,36.0145q-.36744,2.328-.73471,4.65487h1.5389Z" transform="translate(0 -3.66135)"/><path d="M45.75757,44.95183c-.61285,0-1.1527-.00672-1.69222.0035-.20007.00379-.24-.091-.26191-.26393-.09372-.74116-.20172-1.48052-.30717-2.23968H41.37489l-.35778,2.48484H39.11675c.14643-.81519.28591-1.60945.43211-2.40246.53174-2.88423,1.06893-5.76745,1.59327-8.653.04618-.25415.13368-.34815.40046-.34083.68737.01886,1.37558.00631,2.11258.00631C44.35455,37.34062,45.05208,41.12462,45.75757,44.95183Zm-2.55115-4.26865-.73989-4.66431-.06976.00274-.73432,4.66156Z" transform="translate(0 -3.66135)"/><path d="M19.7,38.17395h2.48585v1.7162h-2.4786v3.33931h3.46557V44.933H17.73V33.57511h5.21939v1.68645H19.7Z" transform="translate(0 -3.66135)"/><path d="M51.328,33.57743v1.68234H49.46961v9.66671H47.4875V35.27939H45.62131v-1.702Z" transform="translate(0 -3.66135)"/><path d="M14.8905,44.93339H12.91443V35.27386H11.05466v-1.701h5.71148v1.68819H14.8905Z" transform="translate(0 -3.66135)"/><path d="M78.08941,44.93322V33.57478H80.0451v9.66443H83.118v1.694Z" transform="translate(0 -3.66135)"/><path d="M54.503,33.57316V44.924H52.58162V33.57316Z" transform="translate(0 -3.66135)"/><path d="M.43937,33.58559a.87389.87389,0,0,1,.17375-.03571c.57642-.00273,1.15287-.00165,1.75353-.00165V44.92786H.43937Z" transform="translate(0 -3.66135)"/></svg>