<?xml version="1.0" encoding="utf-8"?>
<!-- Generator: Adobe Illustrator 21.0.0, SVG Export Plug-In . SVG Version: 6.00 Build 0)  -->
<svg version="1.1" id="Layer_1" xmlns="http://www.w3.org/2000/svg" xmlns:xlink="http://www.w3.org/1999/xlink" x="0px" y="0px"
	 viewBox="0 0 98 98" style="enable-background:new 0 0 98 98;" xml:space="preserve">
<style type="text/css">
	.st0{fill:#E8E9EB;}
	.st1{fill:none;stroke:#E8E9EB;stroke-width:2;stroke-linecap:round;stroke-dasharray:34;}
	.st2{fill:#FFFFFF;stroke:#33006F;stroke-width:2.5;stroke-linecap:round;stroke-linejoin:round;}
	.st3{fill:#FFFFFF;stroke:#33006F;stroke-width:2.6;stroke-linecap:round;stroke-linejoin:round;stroke-dasharray:4;}
	.st4{fill:#33006F;stroke:#33006F;stroke-width:1.2;stroke-linecap:round;stroke-linejoin:round;}
	.st5{fill:#FFFFFF;stroke:#33006F;stroke-width:1.8;stroke-linecap:round;stroke-linejoin:round;}
	.st6{fill:#FFA632;stroke:#33006F;stroke-width:1.5;stroke-linecap:round;stroke-linejoin:round;}
	.st7{fill:#FFFFFF;stroke:#33006F;stroke-width:2;stroke-linecap:round;stroke-linejoin:round;}
	.st8{fill:#FFA632;stroke:#33006F;stroke-width:2;stroke-linecap:round;stroke-linejoin:round;}
</style>
<g id="icon_x2F_art_x26_fashion">
	<g id="Group" transform="translate(16.000000, 16.000000)">
		<circle id="Oval-4" class="st0" cx="32.5" cy="33.5" r="40.5"/>
		<path id="Oval-4-Copy" class="st1" d="M33,81c26.5,0,48-21.5,48-48S59.5-15,33-15S-15,6.5-15,33S6.5,81,33,81z"/>
		<g id="Group-11" transform="translate(30.000000, 15.000000)">
			<path id="Fill-1" class="st2" d="M19.8-1.7l-2.3,7.3v0L17,7.3l-1.8,5.8c-1.6,5-1.4,10.3,0.3,15.2c0,0,0,0,0,0
				c0.9,2.4,1.5,5,1.8,7.5c0.1,0.5,0.1,1,0.1,1.6c0.1,1.1,0.1,2.2,0.1,3.3l-0.3,7.9C12.4,49.6,7.4,50,2.5,50
				c-4.1,0-8.2-0.3-12.3-0.9c-0.4-0.1-0.8-0.1-1.2-0.2c-0.2,0-0.3,0-0.5-0.1c-0.3,0-0.6-0.1-0.8-0.1l-0.3-7.9c0-1.1,0-2.2,0.1-3.3
				c0-0.5,0.1-1,0.1-1.6c0.3-2.6,0.9-5.1,1.8-7.5c0,0,0,0,0,0c1.8-4.9,1.9-10.2,0.3-15.2L-12,7.3l-0.5-1.7l-2.3-7.3
				c-0.5-1.7,0.4-3.6,2.1-4.1l8-2.5c1.4-0.4,2.4-1.6,2.6-3.1l0.3-2C-1.8-14.3-1-15-0.1-15h5.2c0,0,0.1,0,0.1,0
				c0.9,0,1.6,0.7,1.7,1.6l0.3,2c0,0,0,0,0,0C7.4-10,8.4-8.8,9.8-8.4l5.1,1.6l2.8,0.9l0.1,0C19.4-5.3,20.4-3.4,19.8-1.7z"/>
			<path id="Path-19" class="st3" d="M-13,3C1,3.7,11.4,3.7,18,3"/>
			<path id="Path-19-Copy" class="st3" d="M-8,21c10.9,0.8,18.9,0.8,24,0"/>
			<path id="Path-19-Copy-2" class="st3" d="M-11,40c12.2,0.8,21.2,0.8,27,0"/>
		</g>
		
			<g id="Group-14" transform="translate(30.500583, 45.854136) rotate(-15.000000) translate(-30.500583, -45.854136) translate(15.500583, 30.354136)">
			<polygon id="Shape" class="st4" points="-1.3,-7.8 -5.5,-12.1 -4.8,-12.8 -0.7,-8.6 			"/>
			<polygon id="Shape_1_" class="st4" points="8.4,-6.7 7.7,-7.4 13,-12.8 13.7,-12.1 			"/>
			<path id="Shape_2_" class="st4" d="M-10.1,11.8c-0.1,0-0.3-0.1-0.4-0.2c-0.2-0.2-0.2-0.5,0-0.7l6.5-6.4c0.2-0.2,0.5-0.2,0.7,0
				c0.2,0.2,0.2,0.5,0,0.7l-6.5,6.4C-9.9,11.8-10,11.8-10.1,11.8"/>
			<path id="Shape_3_" class="st4" d="M18,12.1c-0.1,0-0.2,0-0.3-0.1l-6.8-6.6c-0.2-0.2-0.2-0.5,0-0.7c0.2-0.2,0.5-0.2,0.7,0
				l6.8,6.6c0.2,0.2,0.2,0.5,0,0.7C18.2,12,18.1,12.1,18,12.1"/>
			<path id="Shape_4_" class="st5" d="M14.1-0.8c0,6.1-4.8,11-10.8,11c-6,0-10.8-4.9-10.8-11c0-6.1,4.8-11,10.8-11
				C9.2-11.8,14.1-6.9,14.1-0.8"/>
			<path id="Shape_5_" class="st6" d="M-4.7-14.9c0,1.7-1.3,3-3,3c-1.6,0-3-1.3-3-3s1.3-3,3-3S-4.7-16.5-4.7-14.9"/>
			<path id="Shape_6_" class="st6" d="M18.6-14.9c0,1.7-1.3,3-3,3s-3-1.3-3-3s1.3-3,3-3C17.3-17.9,18.6-16.5,18.6-14.9"/>
			<path id="Shape_7_" class="st4" d="M-2-6.7c-0.3,0-0.5,0.2-0.5,0.5C-2.5-6-2.3-5.8-2-5.8c3.8,0,6.3-2.9,8.2-5.7
				c0-0.1,0.1-0.1,0.1-0.2c-0.3-0.1-0.7-0.1-1-0.1C2.8-8.3,0.6-6.7-2-6.7"/>
			<path id="Shape_8_" class="st4" d="M10.3-9.3C10-9.5,9.7-9.7,9.5-9.8c0,0,0,0,0,0C7.6-7.1,5.3-4.4,2.1-4.4
				c-0.3,0-0.5,0.2-0.5,0.5c0,0.3,0.2,0.5,0.5,0.5C5.8-3.5,8.3-6.4,10.3-9.3"/>
			<path id="Shape_9_" class="st4" d="M13.8-3.9c0.2,0,0.3-0.2,0.3-0.3c-0.1-0.2-0.1-0.4-0.2-0.5c-0.1-0.1-0.3-0.1-0.4-0.1
				c-7,2-12.9,0.7-15.7-1.4C-3.1-7-3.6-7.7-3.6-8.4c0-0.2-0.1-0.3-0.2-0.4C-4-8.5-4.3-8.2-4.5-7.9c0.2,0.8,0.8,1.7,1.7,2.5
				C-0.8-4,2.5-2.9,6.7-2.9C8.9-2.9,11.3-3.2,13.8-3.9"/>
			<path id="Shape_10_" class="st4" d="M13.3,0.8C8.5,2.2-0.5,2.5-5.4-1.3C-6.3-2-6.8-2.7-6.8-3.2c0-0.3-0.2-0.5-0.4-0.5
				c-0.1,0.4-0.3,0.9-0.4,1.4C-7.3-1.7-6.8-1.1-6-0.5c2.5,1.9,7.1,3.4,12.2,3.4c2.4,0,4.9-0.3,7.3-1c0.1,0,0.1-0.1,0.2-0.1
				c0-0.2,0.1-0.4,0.1-0.6C13.7,0.9,13.5,0.8,13.3,0.8"/>
			<path id="Shape_11_" class="st4" d="M11.1,7.4c0.3-0.3,0.5-0.6,0.8-0.9c-0.1-0.1-0.2-0.1-0.3-0.1C1.1,6.8-4.6,5.3-7.1,1.6
				c-0.1-0.2-0.3-0.2-0.5-0.2C-7.5,2-7.4,2.5-7.2,3.1c2.6,3,7.5,4.4,15.5,4.4C9.2,7.5,10.1,7.5,11.1,7.4"/>
		</g>
		<g id="Group-15" transform="translate(48.000000, 35.000000)">
			<path id="Shape_12_" class="st7" d="M-12.9,15c0.3,0.3,0.3,0.8,0,1.1l-0.3,0.3l4.5-1.2l-4.3-4.3l-1.2,4.4L-14,15
				C-13.7,14.7-13.2,14.7-12.9,15z"/>
			<path id="Shape_13_" class="st7" d="M-13.2,16.3l0.3-0.3c0.3-0.3,0.3-0.8,0-1.1s-0.8-0.3-1.1,0l-0.3,0.3l-0.4,1.5L-13.2,16.3z"/>
			<polygon id="Shape_14_" class="st8" points="12,-5.4 7.6,-9.7 -13,10.8 -13.1,10.8 -8.7,15.1 -8.7,15.1 			"/>
			<path id="Shape_15_" class="st7" d="M16.9-12.4l-2.2-2.2c-0.6-0.6-1.6-0.6-2.2,0l-2.7,2.7l4.4,4.3l2.7-2.7
				C17.5-10.8,17.5-11.8,16.9-12.4z"/>
			
				<rect id="Rectangle-path" x="7.5" y="-10.9" transform="matrix(0.7071 -0.7071 0.7071 0.7071 10.0258 3.3722)" class="st7" width="3.1" height="1"/>
			
				<rect id="Rectangle-path_1_" x="9.4" y="-11.7" transform="matrix(0.7071 -0.7071 0.7071 0.7071 9.2864 5.1865)" class="st7" width="3" height="6.2"/>
		</g>
	</g>
</g>
</svg>
