<?xml version="1.0" encoding="utf-8"?>
<!-- Generator: Adobe Illustrator 21.0.0, SVG Export Plug-In . SVG Version: 6.00 Build 0)  -->
<svg version="1.1" id="Layer_1" xmlns="http://www.w3.org/2000/svg" xmlns:xlink="http://www.w3.org/1999/xlink" x="0px" y="0px"
	 viewBox="0 0 98 98" style="enable-background:new 0 0 98 98;" xml:space="preserve">
<style type="text/css">
	.st0{fill:#E8E9EB;}
	.st1{fill:none;stroke:#E8E9EB;stroke-width:2;stroke-linecap:round;stroke-dasharray:34;}
	.st2{fill:#FFFFFF;stroke:#33006F;stroke-width:2.5;stroke-linecap:round;stroke-linejoin:round;}
	.st3{fill:#33006F;}
	.st4{fill:none;stroke:#33006F;stroke-width:2.42;stroke-linecap:round;stroke-linejoin:round;}
	.st5{fill:#FFA632;stroke:#33006F;stroke-width:2.3;stroke-linecap:round;stroke-linejoin:round;}
	.st6{fill:#FFFFFF;stroke:#33006F;stroke-width:2.178;stroke-linecap:round;stroke-linejoin:round;}
	.st7{fill:#33006F;stroke:#33006F;stroke-width:0.2;}
	.st8{fill:none;stroke:#33006F;stroke-width:2.6;stroke-linecap:round;stroke-linejoin:round;}
	.st9{fill:#FFFFFF;stroke:#33006F;stroke-width:2.6;stroke-linecap:round;stroke-linejoin:round;}
</style>
<g id="icon_x2F_business-development">
	<g id="Group-2" transform="translate(16.000000, 16.000000)">
		<g id="Group">
			<circle id="Oval-4" class="st0" cx="32.5" cy="33.5" r="40.5"/>
			<path id="Oval-4-Copy" class="st1" d="M33,81c26.5,0,48-21.5,48-48S59.5-15,33-15S-15,6.5-15,33S6.5,81,33,81z"/>
		</g>
		<path id="Rectangle-17-Copy" class="st2" d="M2.2,10h56.6c0.7,0,1.2,0.5,1.2,1.2v38.6c0,0.7-0.5,1.2-1.2,1.2H2.2
			C1.5,51,1,50.5,1,49.8V11.2C1,10.5,1.5,10,2.2,10z"/>
		<g id="Group-16-Copy" transform="translate(28.000000, 31.000000)">
			<path id="Fill-7" class="st3" d="M-13.2,5.6h-1.2c-0.3,0-0.6-0.4-0.6-0.8c0-0.4,0.3-0.8,0.6-0.8h1.2c0.3,0,0.6,0.4,0.6,0.8
				C-12.6,5.2-12.9,5.6-13.2,5.6z"/>
			<path id="Fill-8" class="st3" d="M-13.2,2.4h-1.2c-0.3,0-0.6-0.4-0.6-0.8c0-0.4,0.3-0.8,0.6-0.8h1.2c0.3,0,0.6,0.4,0.6,0.8
				C-12.6,2.1-12.9,2.4-13.2,2.4z"/>
			<path id="Fill-9" class="st3" d="M-13.2-0.7h-1.2c-0.3,0-0.6-0.4-0.6-0.8s0.3-0.8,0.6-0.8h1.2c0.3,0,0.6,0.4,0.6,0.8
				S-12.9-0.7-13.2-0.7z"/>
			<path id="Fill-10" class="st3" d="M-13.2-3.9h-1.2c-0.3,0-0.6-0.4-0.6-0.8c0-0.4,0.3-0.8,0.6-0.8h1.2c0.3,0,0.6,0.4,0.6,0.8
				C-12.6-4.3-12.9-3.9-13.2-3.9z"/>
			<path id="Fill-11" class="st3" d="M-13.2-7.1h-1.2c-0.3,0-0.6-0.4-0.6-0.8c0-0.4,0.3-0.8,0.6-0.8h1.2c0.3,0,0.6,0.4,0.6,0.8
				C-12.6-7.4-12.9-7.1-13.2-7.1z"/>
			<path id="Fill-12" class="st3" d="M-13.2-10.2h-1.2c-0.3,0-0.6-0.4-0.6-0.8c0-0.4,0.3-0.8,0.6-0.8h1.2c0.3,0,0.6,0.4,0.6,0.8
				C-12.6-10.6-12.9-10.2-13.2-10.2z"/>
			<path id="Fill-13" class="st3" d="M-13.2-13.4h-1.2c-0.3,0-0.6-0.4-0.6-0.8c0-0.4,0.3-0.8,0.6-0.8h1.2c0.3,0,0.6,0.4,0.6,0.8
				C-12.6-13.8-12.9-13.4-13.2-13.4z"/>
		</g>
		<path id="Path-23-Copy-2" class="st4" d="M10,16v29.8"/>
		<path id="Path-23-Copy-3" class="st4" d="M53,42H5"/>
		<path id="Path-24-Copy-2" class="st5" d="M10,39.3l13.1-12.9l7.1,9l15.5-12.9l-3.6-3.9L54,16c-0.4,7.5-0.7,11.6-1,12.2
			c-0.3,0.6-1.6-0.4-3.7-3.1l-19,16.8l-7.1-7.8L10,47V39.3z"/>
		<g id="Group-2-Copy-3" transform="translate(59.000000, 48.000000)">
			<circle id="Oval" class="st6" cx="-3.5" cy="-3.5" r="11.5"/>
			<path id="Path" class="st7" d="M-2.4,1.2v0.8c0,0.6-0.5,1-1.1,1s-1.1-0.5-1.1-1V1.2H-6c-0.6,0-1.1-0.5-1.1-1s0.5-1,1.1-1h4
				c0.5,0,0.9-0.4,0.9-0.8c0-0.5-0.4-0.8-0.9-0.8h-3c-1.7,0-3.1-1.3-3.1-2.9S-6.7-8.2-5-8.2h0.4v-0.8c0-0.6,0.5-1,1.1-1
				s1.1,0.5,1.1,1v0.8H-1c0.6,0,1.1,0.5,1.1,1s-0.5,1-1.1,1h-4c-0.5,0-0.9,0.4-0.9,0.8c0,0.5,0.4,0.8,0.9,0.8h3
				c1.7,0,3.1,1.3,3.1,2.9S-0.3,1.2-2,1.2H-2.4z"/>
		</g>
		<polyline id="Path-26-Copy" class="st8" points="37,22.5 30.3,27.6 23.6,20 11,31 		"/>
		<path id="Path-27-Copy" class="st3" d="M34,20.7l5-0.6c0.3,0,0.6,0.2,0.6,0.5c0,0.1,0,0.2,0,0.3l-1.9,4.3
			c-0.1,0.3-0.4,0.4-0.7,0.3c-0.1,0-0.1-0.1-0.2-0.1l-3.1-3.7c-0.2-0.2-0.2-0.6,0.1-0.8C33.8,20.8,33.9,20.7,34,20.7z"/>
		<path id="Path-25" class="st9" d="M3,56h43"/>
	</g>
</g>
</svg>
