<svg xmlns="http://www.w3.org/2000/svg" xmlns:xlink="http://www.w3.org/1999/xlink" width="127.91" height="80" viewBox="0 0 127.91 80">
  <defs>
    <clipPath id="clip-path">
      <rect width="127.909" height="80" fill="none"/>
    </clipPath>
    <linearGradient id="linear-gradient" y1="0.5" x2="1" y2="0.5" gradientUnits="objectBoundingBox">
      <stop offset="0.304" stop-color="#ff6c36"/>
      <stop offset="1" stop-color="#ffb819"/>
    </linearGradient>
  </defs>
  <g id="Logo" clip-path="url(#clip-path)">
    <g id="Group_8" data-name="Group 8" transform="translate(0 0)">
      <g id="Group">
        <g id="Group-2" data-name="Group">
          <g id="Group-3" data-name="Group" transform="translate(33.085 34.523)">
            <path id="Shape" d="M0,1.72V29.31H13.831V0C8.949.441,4.068,1.022,0,1.72Z" transform="translate(41.22 0.167)" fill="#33006f"/>
            <path id="Shape-2" data-name="Shape" d="M0,6.082v14.5H13.831V0A93.311,93.311,0,0,0,0,6.082Z" transform="translate(0 8.894)" fill="#33006f"/>
            <path id="Shape-3" data-name="Shape" d="M0,3.46V26.337H13.831V0C8.949,1.013,4.068,2.184,0,3.46Z" transform="translate(20.61 3.14)" fill="#33006f"/>
          </g>
          <path id="Shape-4" data-name="Shape" d="M13.831,26.244V13.449A13.7,13.7,0,0,1,27.479,26.822H27.39v.3q6.508.68,13.831,1.917V26.822h.009C41.105,12.216,28.851,0,13.747,0H0V26.444C4.068,26.2,8.949,26.123,13.831,26.244Z" transform="translate(74.305)" fill="#33006f"/>
          <path id="Shape-5" data-name="Shape" d="M13.831,26.969V0H0V28.916C4.068,28.112,8.949,27.444,13.831,26.969Z" transform="translate(53.695)" fill="#33006f"/>
          <path id="Shape-6" data-name="Shape" d="M39.858,0H26.114L0,64H13.744l19.25-47.327V34.334a107.523,107.523,0,0,1,13.831-3.967V0Z" transform="translate(0.09)" fill="#33006f"/>
        </g>
        <path id="Shape-7" data-name="Shape" d="M9.346,12.024l-.007.016h0L0,34.9C8.539,25.563,38.521.831,114.075,5.425,63.692-6.694,27.11,4.175,9.346,12.024Z" transform="translate(13.834 28.875)" fill="url(#linear-gradient)"/>
      </g>
      <path id="ASIA_INTERNSHIP_PROG" data-name="ASIA INTERNSHIP PROG" d="M94.946,8a2.422,2.422,0,0,1-1.838-.732,2.926,2.926,0,0,1-.692-2.083V2.814A3,3,0,0,1,93.083.737,2.283,2.283,0,0,1,94.853,0a2.326,2.326,0,0,1,1.776.633,2.651,2.651,0,0,1,.616,1.814l-.01.031H95.929a1.547,1.547,0,0,0-.267-.958.95.95,0,0,0-.77-.3.939.939,0,0,0-.8.392A2.023,2.023,0,0,0,93.805,2.8V5.186A2.043,2.043,0,0,0,94.1,6.4a.993.993,0,0,0,.849.392,1.2,1.2,0,0,0,.614-.123.921.921,0,0,0,.326-.363V4.908h-.94V3.839h2.329v2.9a2.692,2.692,0,0,1-.866.884A2.62,2.62,0,0,1,94.946,8ZM89.08,8a2.291,2.291,0,0,1-1.805-.77A3.141,3.141,0,0,1,86.6,5.095V2.916A3.169,3.169,0,0,1,87.275.777,2.277,2.277,0,0,1,89.076,0a2.305,2.305,0,0,1,1.81.777,3.136,3.136,0,0,1,.686,2.139V5.095a3.125,3.125,0,0,1-.68,2.136A2.308,2.308,0,0,1,89.08,8Zm0-6.777a.919.919,0,0,0-.823.422,2.347,2.347,0,0,0-.274,1.26v2.19a2.322,2.322,0,0,0,.279,1.265.924.924,0,0,0,.822.422A.935.935,0,0,0,89.9,6.36a2.294,2.294,0,0,0,.284-1.265V2.905A2.284,2.284,0,0,0,89.9,1.648.937.937,0,0,0,89.076,1.223ZM55.175,8a2.609,2.609,0,0,1-1.764-.649,2.279,2.279,0,0,1-.722-1.861l.01-.032h1.355a1.563,1.563,0,0,0,.278,1.037,1.073,1.073,0,0,0,.842.315.8.8,0,0,0,.652-.257,1.058,1.058,0,0,0,.213-.695,1.112,1.112,0,0,0-.215-.718,2.211,2.211,0,0,0-.759-.52A4.927,4.927,0,0,1,53.4,3.661a2,2,0,0,1-.555-1.5A2.038,2.038,0,0,1,53.491.6,2.338,2.338,0,0,1,55.14,0a2.183,2.183,0,0,1,1.653.67,2.3,2.3,0,0,1,.617,1.69l-.01.031H56.05a1.425,1.425,0,0,0-.245-.865.892.892,0,0,0-1.338-.056,1.04,1.04,0,0,0-.232.691.842.842,0,0,0,.259.633,3.611,3.611,0,0,0,.9.554,3.738,3.738,0,0,1,1.525.948,2.256,2.256,0,0,1,.511,1.552,2.056,2.056,0,0,1-.617,1.58A2.327,2.327,0,0,1,55.175,8ZM8.39,8a2.612,2.612,0,0,1-1.764-.649A2.279,2.279,0,0,1,5.9,5.49l.01-.032H7.269a1.558,1.558,0,0,0,.279,1.037,1.072,1.072,0,0,0,.841.315.8.8,0,0,0,.653-.257,1.058,1.058,0,0,0,.212-.695,1.108,1.108,0,0,0-.215-.718,2.2,2.2,0,0,0-.758-.52,4.942,4.942,0,0,1-1.667-.959,2,2,0,0,1-.555-1.5A2.036,2.036,0,0,1,6.707.6,2.334,2.334,0,0,1,8.356,0a2.185,2.185,0,0,1,1.654.67,2.3,2.3,0,0,1,.616,1.69l-.01.031H9.266a1.42,1.42,0,0,0-.245-.865.891.891,0,0,0-1.337-.056,1.036,1.036,0,0,0-.233.691.842.842,0,0,0,.259.633,3.637,3.637,0,0,0,.9.554,3.732,3.732,0,0,1,1.524.948,2.256,2.256,0,0,1,.512,1.552,2.056,2.056,0,0,1-.617,1.58A2.324,2.324,0,0,1,8.39,8Zm102.776-.112h-1.384V.113h1.805l1.277,5.709h.029L114.185.113H116V7.887h-1.385V5.629l.118-3.022L114.7,2.6l-1.36,5.287h-.925l-1.345-5.244-.03.005.122,2.98V7.888Zm-11.363,0h-1.39V.118h2.324a2.227,2.227,0,0,1,1.651.606,2.3,2.3,0,0,1,.6,1.685,2.1,2.1,0,0,1-.249,1.049,1.812,1.812,0,0,1-.729.7,1.4,1.4,0,0,1,.79.673,2.566,2.566,0,0,1,.242,1.175v.55a3.731,3.731,0,0,0,.068.686.983.983,0,0,0,.239.532v.111h-1.438a.913.913,0,0,1-.215-.555,6.855,6.855,0,0,1-.044-.785V6.018a1.6,1.6,0,0,0-.218-.9.71.71,0,0,0-.624-.32H99.8V7.888Zm0-6.558V3.584h.93a.77.77,0,0,0,.645-.283,1.3,1.3,0,0,0,.22-.806,1.462,1.462,0,0,0-.22-.849.735.735,0,0,0-.641-.315ZM82.4,7.889h-1.39V.118h2.325a2.227,2.227,0,0,1,1.651.606,2.3,2.3,0,0,1,.6,1.685,2.1,2.1,0,0,1-.249,1.049,1.812,1.812,0,0,1-.729.7,1.4,1.4,0,0,1,.79.673,2.566,2.566,0,0,1,.242,1.175v.55a3.732,3.732,0,0,0,.068.686.983.983,0,0,0,.239.532v.111H84.507a.913.913,0,0,1-.215-.555,6.853,6.853,0,0,1-.044-.785V6.018a1.6,1.6,0,0,0-.218-.9.712.712,0,0,0-.624-.32H82.4V7.888Zm0-6.558V3.584h.93a.77.77,0,0,0,.645-.283,1.3,1.3,0,0,0,.22-.806,1.462,1.462,0,0,0-.221-.849.735.735,0,0,0-.641-.315ZM59.777,7.889h-1.4V.113h1.4V3.455h2.211V.113h1.39V7.887h-1.39V4.667H59.777v3.22Zm-11.662,0H46.721V.113h1.394l2.178,4.966.029-.011V.113h1.385V7.887H50.322L48.145,2.916l-.03.011V7.888Zm-5.767,0h-1.39V.118h2.325a2.227,2.227,0,0,1,1.652.606,2.3,2.3,0,0,1,.6,1.685,2.111,2.111,0,0,1-.249,1.049,1.81,1.81,0,0,1-.73.7,1.4,1.4,0,0,1,.79.673,2.555,2.555,0,0,1,.243,1.175v.55a3.734,3.734,0,0,0,.068.686.975.975,0,0,0,.239.532v.111H44.457a.919.919,0,0,1-.216-.555,7.061,7.061,0,0,1-.043-.785V6.018a1.6,1.6,0,0,0-.218-.9.713.713,0,0,0-.625-.32H42.348V7.888Zm0-6.558V3.584h.93a.771.771,0,0,0,.646-.283,1.3,1.3,0,0,0,.221-.806,1.462,1.462,0,0,0-.221-.849.735.735,0,0,0-.641-.315h-.935ZM26.377,7.889H24.983V.113h1.394l2.178,4.966.029-.011V.113h1.385V7.887H28.584L26.407,2.916l-.03.011V7.888Zm78.742,0h-1.4L105.721.113h1.448l2,7.774h-1.4l-.387-1.65H105.5l-.382,1.65Zm1.307-5.624-.641,2.75H107.1l-.641-2.75h-.03Zm-91.1,5.624h-1.4L15.926.113h1.448l2,7.774h-1.4l-.387-1.65H15.706l-.382,1.65Zm1.307-5.624-.641,2.75H17.3l-.641-2.75h-.03ZM1.4,7.888H0L2.006.113H3.454l2,7.774h-1.4l-.387-1.65H1.786L1.4,7.888ZM2.711,2.264,2.07,5.015H3.381l-.641-2.75h-.03ZM76.65,7.888H75.256V.113h2.476A2.155,2.155,0,0,1,79.415.8a2.614,2.614,0,0,1,.617,1.805,2.6,2.6,0,0,1-.619,1.807,2.156,2.156,0,0,1-1.68.687H76.65V7.887Zm0-6.557V3.883h1.082a.768.768,0,0,0,.68-.358,1.629,1.629,0,0,0,.235-.907,1.69,1.69,0,0,0-.233-.922.76.76,0,0,0-.682-.365ZM68.625,7.888h-1.4V.113h2.476A2.156,2.156,0,0,1,71.39.8a2.618,2.618,0,0,1,.617,1.805,2.607,2.607,0,0,1-.619,1.807,2.16,2.16,0,0,1-1.681.687H68.625V7.887Zm0-6.557V3.883h1.081a.768.768,0,0,0,.68-.358,1.629,1.629,0,0,0,.235-.907,1.7,1.7,0,0,0-.232-.922.761.761,0,0,0-.683-.365ZM65.994,7.888H64.609V.113h1.385V7.887Zm-25.846,0H35.94V.113h4.2V1.33h-2.8V3.263h2.392V4.476H37.335v2.2h2.813V7.887Zm-6.565,0h-1.39V1.33H30.6V.113h4.59V1.33h-1.6V7.887Zm-9.837,0H22.362V.113h1.384V7.887Zm-10.69,0H11.671V.113h1.385V7.887Z" transform="translate(0 72)" fill="#33006f"/>
    </g>
  </g>
</svg>
