<?xml version="1.0" encoding="utf-8"?>
<!-- Generator: Adobe Illustrator 23.0.1, SVG Export Plug-In . SVG Version: 6.00 Build 0)  -->
<svg version="1.1" id="Layer_1" xmlns="http://www.w3.org/2000/svg" xmlns:xlink="http://www.w3.org/1999/xlink" x="0px" y="0px"
	 viewBox="0 0 128 128" style="enable-background:new 0 0 128 128;" xml:space="preserve">
<style type="text/css">
	.st0{fill-rule:evenodd;clip-rule:evenodd;fill:#E8E9EB;}
	.st1{fill:none;stroke:#E8E9EB;stroke-width:2;stroke-linecap:round;stroke-dasharray:34;}
	
		.st2{fill-rule:evenodd;clip-rule:evenodd;fill:#FFFFFF;stroke:#33006F;stroke-width:2;stroke-linecap:round;stroke-linejoin:round;}
	.st3{fill:none;stroke:#33006F;stroke-width:2;stroke-linecap:round;stroke-linejoin:round;}
	.st4{fill:#33006F;}
	
		.st5{fill-rule:evenodd;clip-rule:evenodd;fill:#F9A434;stroke:#33006F;stroke-width:2;stroke-linecap:round;stroke-linejoin:round;}
	.st6{fill:#F9A434;stroke:#33006F;stroke-width:2;stroke-linecap:round;stroke-linejoin:round;}
	.st7{fill:#FFFFFF;}
	.st8{fill:#F9A434;}
</style>
<g>
	<g id="Group" transform="translate(16.000000, 16.000000)">
		<circle id="Oval-4" class="st0" cx="47.5" cy="48.5" r="40.5"/>
		<path id="Oval-4-Copy" class="st1" d="M48,96c26.5,0,48-21.5,48-48S74.5,0,48,0S0,21.5,0,48S21.5,96,48,96z"/>
	</g>
</g>
<g>
	<polygon class="st7" points="54.3,39.8 63.2,34.7 73,39.4 72.6,46 77.7,43.9 86.5,48.3 78.2,53.9 78.1,63.6 82.3,62.1 86.1,65.1 
		77.7,70.7 77.7,81.3 72.4,78.7 72.1,73.8 63.2,79.1 63.2,89.7 53.9,84.2 53.9,77.9 48.7,81.1 39.4,75.9 39.4,65.4 44.7,62.2 
		39.4,58.6 39.4,48.3 47.9,43.2 53.9,46 	"/>
	<g>
		<g>
			<path class="st8" d="M80.7,52.4c-0.1,0-0.1,0.1-0.2,0.1c-0.5,0.3-1.1,0.6-1.6,0.9c-0.2,0.1-0.5,0.3-0.7,0.4c0,0.2,0,0.4,0,0.7
				c0,0.2,0,0.4,0,0.6c0,1.2,0,2.5,0,3.7c0,0.7,0,1.4,0,2.1c0,0.9,0,1.8,0,2.6c0.9-0.5,1.9-1.1,2.8-1.6c0.5-0.3,1.1-0.6,1.6-1l0,0
				c0,0,0.1,0,0.1,0c0.2-0.1,0.4-0.3,0.7-0.4c0.2-0.1,0.5-0.3,0.7-0.4c0.1-0.1,0.2-0.1,0.3-0.2c0,0,0,0,0,0c0.6-0.3,1.1-0.7,1.7-1
				c0.1-0.1,0.3-0.2,0.4-0.3c0-0.3,0-0.7,0-1c0-0.8,0-1.7,0-2.5c0-0.3,0-0.5,0-0.8c0,0,0-0.1,0-0.1v0c0-0.3,0-0.6,0-0.9
				c0-0.9,0-1.8,0-2.6c0-0.6,0-1.1,0-1.7c-1,0.6-2,1.1-3,1.7C82.6,51.3,81.6,51.9,80.7,52.4z"/>
		</g>
		<g>
			<g>
				<path class="st4" d="M87.3,64.7c-0.1-0.1-0.2-0.2-0.4-0.3c-1.3-0.8-2.6-1.5-3.9-2.3c1-0.6,2-1.2,3-1.8c0.7-0.4,1.6-0.7,1.6-1.7
					c0-1.2,0-2.5,0-3.7c0-1-1.6-1-1.6,0c0,1,0,2.1,0,3.1c0,0.1,0,0.2,0,0.3c-0.3,0.1-0.5,0.4-0.7,0.5c-1.5,0.8-2.9,1.7-4.4,2.5l0,0
					c-0.3,0.2-0.6,0.3-0.8,0.5c-0.5,0.3-1.1,0.6-1.6,0.9c0,0-0.1,0-0.1,0.1c0-0.8,0-1.6,0-2.4c0,0,0,0,0-0.1c0-2,0.1-3.9,0-5.9
					c0-0.2,0-0.3,0-0.5c0.2-0.1,0.3-0.2,0.5-0.3c0.2-0.1,0.3-0.2,0.5-0.3c1.3-0.8,2.6-1.5,4-2.3c0.8-0.5,1.7-1,2.5-1.5
					c0,0,0,0,0.1,0c0,0.2,0,0.4,0,0.6c0,0.6,0,1.2,0,1.8c0,1,1.6,1,1.6,0c0-0.7,0-1.4,0-2c0-0.6,0.2-1.6-0.1-2.1c0,0,0,0,0,0
					c-0.2-0.3-0.6-0.5-0.9-0.7c-0.7-0.4-1.4-0.8-2.1-1.2c-1.7-1-3.5-2-5.2-3c-0.4-0.2-0.8-0.5-1.2-0.7c-0.6-0.3-1.1,0.1-1.7,0.4
					c-1.1,0.6-2.2,1.3-3.3,1.9c0-1,0-1.9,0-2.9c0-0.6,0.2-1.7-0.1-2.3c0,0,0,0,0,0c-0.2-0.4-0.6-0.5-1-0.7c-1.6-0.9-3.3-1.9-4.9-2.8
					c-1.2-0.7-2.4-1.5-3.6-2.1c-0.6-0.3-1,0-1.4,0.3c-0.7,0.4-1.4,0.8-2.1,1.2c-1.7,1-3.5,2-5.2,3c-0.4,0.2-0.8,0.4-1.2,0.7
					c-0.3,0.2-0.4,0.4-0.4,0.6c-0.1,0.2-0.1,0.3-0.1,0.5c0,1.5,0,3,0,4.5c-0.8-0.4-1.5-0.9-2.3-1.3c-0.6-0.3-1.2-0.7-1.8-1
					c-0.6-0.3-1,0-1.4,0.3c-0.7,0.4-1.4,0.8-2.1,1.2c-1.7,1-3.5,2-5.2,3c-0.4,0.2-0.8,0.4-1.2,0.7c-0.2,0.1-0.3,0.3-0.4,0.5
					c-0.1,0.3-0.1,0.6-0.1,1c0,0.8,0,1.6,0,2.4c0,2,0,4.1,0,6.1c0,0.5,0,1,0,1.4c0.1,0.7,0.6,0.9,1.1,1.2c1.2,0.7,2.4,1.4,3.5,2.1
					c-0.7,0.4-1.3,0.8-2,1.1c-0.4,0.2-1.7,0.8-2.3,1.4c-0.2,0.1-0.3,0.3-0.4,0.7c-0.1,0.7,0,1.4,0,2.1c0,1,1.6,1,1.6,0
					c0-0.3,0-0.6,0-0.9c0.2,0.1,0.3,0.2,0.5,0.3c0.2,0.1,0.4,0.3,0.7,0.4c1.4,0.8,2.9,1.7,4.3,2.5c0.5,0.3,1,0.6,1.5,0.8
					c0.2,0.1,0.5,0.3,0.8,0.5c0,0.7,0,1.5,0,2.2c0,1.7,0,3.3,0,5c0,0.5,0,1.1,0,1.6c-0.1,0-0.1-0.1-0.2-0.1
					c-0.9-0.5-1.9-1.1-2.8-1.6c-1-0.6-2-1.2-3-1.7c-0.5-0.3-1.1-0.7-1.7-1c0,0,0,0,0,0c0-0.5,0-1.1,0-1.6c0-1-1.6-1-1.6,0
					c0,0.7-0.1,1.4,0,2c0,0.6,0.4,0.8,0.8,1c1.3,0.7,2.6,1.5,3.9,2.2c1.4,0.8,2.8,1.6,4.2,2.5c0.3,0.2,0.6,0.4,0.9,0.5
					c0.1,0,0.2,0,0.2,0c0,0,0,0,0,0c0.4,0,0.6-0.2,0.9-0.4c0.5-0.3,1-0.6,1.5-0.9c0.7-0.4,1.3-0.8,2-1.2c0,1.6-0.1,3.2,0,4.7
					c0,0.6,0.4,0.8,0.9,1.1c0.7,0.4,1.3,0.8,2,1.1c1.8,1,3.5,2,5.3,3.1c0.5,0.3,0.9,0.6,1.4,0.8c0.2,0.1,0.3,0.1,0.4,0.1
					c0,0,0.1,0,0.1,0c0.4,0,0.9-0.3,1.3-0.6c0.8-0.4,1.5-0.9,2.3-1.3c1.7-1,3.4-1.9,5-2.9c0.3-0.2,0.7-0.4,1-0.6
					c0.6-0.4,0.4-1.2,0.4-1.8c0-1.2,0-2.5,0-3.7c0.7,0.4,1.3,0.8,2,1.1c0.6,0.3,1.2,0.7,1.7,1c0.2,0.1,0.3,0.2,0.5,0.2
					c0.1,0.1,0.2,0.1,0.3,0.1c0.4,0,0.9-0.3,1.3-0.6c0.8-0.4,1.5-0.9,2.3-1.3c1.7-1,3.4-1.9,5-2.9c0.3-0.2,0.7-0.4,1-0.6
					c0.5-0.4,0.4-0.9,0.4-1.4c0-1.8,0-3.7,0-5.5c0-1,0-2.1,0-3.1c0-0.5,0.1-1.2-0.1-1.6C87.5,64.8,87.4,64.7,87.3,64.7z M72.8,46.7
					L72.8,46.7c1.2-0.7,2.3-1.4,3.5-2c0.3-0.2,0.7-0.4,1-0.6c0.1,0,0.2-0.1,0.4-0.2c0.1,0.1,0.2,0.1,0.3,0.2
					c1.6,0.9,3.2,1.8,4.7,2.7c0.8,0.5,1.7,1,2.5,1.5c0,0,0.1,0,0.1,0c-0.2,0.1-0.3,0.2-0.5,0.3c-0.5,0.3-1,0.6-1.6,0.9
					c-1.3,0.8-2.7,1.6-4,2.3c-0.3,0.2-0.6,0.3-0.9,0.5c-0.2,0.1-0.5,0.2-0.8,0.4c-0.1-0.1-0.3-0.1-0.4-0.2c-0.4-0.2-0.8-0.5-1.2-0.7
					c-1.1-0.6-2.2-1.3-3.3-1.9c-0.9-0.5-1.9-1.1-2.8-1.6c0.3-0.1,0.5-0.3,0.8-0.4C71.4,47.5,72.2,47.1,72.8,46.7z M73.2,56.8
					C73.2,56.8,73.2,56.8,73.2,56.8c0-0.1,0-0.1,0-0.1c0,0,0-0.1,0-0.1c0,0,0,0,0,0c0,0,0-0.1-0.1-0.1c0,0,0,0,0,0
					c0-0.1-0.1-0.1-0.1-0.2c0,0,0,0,0,0c-0.2-0.2-0.4-0.3-0.7-0.5c-0.4-0.2-0.8-0.5-1.3-0.7c-0.6-0.3-1.2-0.7-1.8-1
					c0-0.5,0-0.9,0-1.4c0-0.2,0-0.4,0-0.6c0-0.7,0-1.5,0-2.2c0-0.1,0-0.1,0-0.2c2.3,1.3,4.6,2.7,6.9,4c0.2,0.1,0.5,0.4,0.8,0.5
					c0,0.1,0,0.3,0,0.4c0,1.8,0,3.6,0,5.4c0,1,0,2,0,3c-0.6-0.4-1.2-0.7-1.8-1.1c-0.6-0.4-1.3-0.7-1.9-1.1c0-0.6,0-1.3,0-1.9
					c0-0.4,0-0.8,0-1.2C73.2,57.4,73.2,57.1,73.2,56.8z M71.6,63.8c0,0.8,0,1.5,0,2.3c0,0.3,0,0.6,0,0.9c-0.1,0.1-0.3,0.2-0.4,0.2
					c-0.5,0.3-1,0.6-1.6,0.9c0,0,0,0,0,0c-0.1,0.1-0.2,0.1-0.3,0.2c-0.2,0.1-0.4,0.2-0.6,0.4c-0.2,0.1-0.4,0.2-0.6,0.4
					c0,0,0,0-0.1,0l0,0c-0.5,0.3-1,0.6-1.5,0.9c-0.9,0.5-1.7,1-2.6,1.5c0-0.8,0-1.6,0-2.4c0-0.6,0-1.3,0-1.9c0-1.1,0-2.3,0-3.4
					c0-0.2,0-0.4,0-0.6c0-0.2,0-0.4,0-0.6c0.2-0.1,0.4-0.3,0.6-0.4c0.5-0.3,1-0.6,1.5-0.9c0.1,0,0.1-0.1,0.2-0.1
					c0.9-0.5,1.7-1,2.6-1.5c0.9-0.5,1.8-1,2.7-1.6c0,0.5,0,1,0,1.5c0,0.8,0,1.6,0,2.4c0,0.3,0,0.6,0,0.9v0c0,0,0,0.1,0,0.1
					C71.6,63.3,71.6,63.6,71.6,63.8z M53.1,57c0,0.1,0,0.1,0,0.2c0,0,0,0.1,0,0.1c0,0.2,0,0.4,0,0.7c0,1,0,1.9,0,2.9
					c-0.4,0.2-0.7,0.4-1.1,0.6c-0.3,0.2-0.6,0.4-1,0.6c-0.5,0.3-1.1,0.6-1.6,0.9c0-0.8,0-1.6,0-2.4c0-1.9,0-3.7,0-5.6
					c0-0.2,0-0.6,0-0.8c0.2-0.1,0.4-0.3,0.6-0.4c1.4-0.8,2.9-1.7,4.3-2.5c0.3-0.2,0.6-0.4,0.9-0.5c0.5-0.3,1-0.6,1.5-0.9
					c0.1,0,0.2-0.1,0.3-0.2c0,0.7,0,1.4,0,2.1c0,0.7,0,1.5,0,2.2c-0.7,0.4-1.3,0.8-2,1.2c-0.4,0.2-1,0.5-1.4,0.8
					c-0.1,0-0.2,0.1-0.3,0.2c-0.1,0.1-0.1,0.2-0.2,0.2c-0.1,0.1-0.1,0.2-0.1,0.3C53.1,56.8,53.1,56.9,53.1,57z M54.7,66.2
					c0-0.3,0-0.6,0-0.9c0-0.4,0-0.9,0-1.3c0-0.9,0-1.7,0-2.6c0-0.1,0-0.1,0-0.2c0-0.4,0-0.8,0-1.2c0-0.1,0-0.1,0-0.2
					c0-0.1,0-0.3,0-0.4c0-0.1,0-0.3,0-0.4c0-0.3,0-0.5,0-0.8c0.2,0.1,0.4,0.2,0.6,0.3c0.5,0.3,1,0.6,1.5,0.8
					c1.6,0.9,3.1,1.8,4.7,2.7c0.1,0.1,0.2,0.1,0.4,0.2c0.2,0.1,0.4,0.3,0.6,0.4c0,0.1,0,0.3,0,0.4c0,1.8,0,3.6,0,5.4c0,1,0,2,0,3
					c-0.3-0.2-0.6-0.4-0.9-0.5c-0.6-0.3-1.1-0.6-1.7-1c-0.5-0.3-1-0.6-1.5-0.9c-1-0.6-2-1.2-3-1.7c0,0-0.1-0.1-0.1-0.1
					c-0.1-0.1-0.3-0.2-0.5-0.3c0-0.1,0-0.1,0-0.2C54.7,66.6,54.7,66.4,54.7,66.2z M58.7,58.7c-0.1,0-0.2-0.1-0.2-0.1
					c-1-0.6-2-1.2-3-1.7c0.2-0.1,0.5-0.3,0.7-0.4c0.7-0.4,1.4-0.7,2-1.2c0,0,0,0,0,0h0c0.1-0.1,0.2-0.1,0.3-0.2
					c0.9-0.6,1.9-1.1,2.8-1.7c0.4-0.2,0.9-0.5,1.3-0.7c0.1-0.1,0.3-0.1,0.5-0.2c1.1,0.6,2.2,1.3,3.4,1.9c0.3,0.2,0.7,0.4,1,0.6
					c0.1,0.1,0.3,0.2,0.4,0.2c0,0,0,0,0,0c0,0,0,0,0,0c0.6,0.4,1.3,0.7,1.9,1.1c0.3,0.2,0.6,0.3,0.9,0.5c-0.2,0.1-0.3,0.2-0.5,0.3
					c-0.7,0.4-1.5,0.8-2.2,1.3c-0.4,0.2-0.8,0.5-1.3,0.7c-0.6,0.3-1.2,0.7-1.8,1c-0.1,0-0.2,0.1-0.2,0.1c-0.2,0.1-0.4,0.3-0.7,0.4
					c-0.3,0.2-0.7,0.4-1.1,0.6c-0.1-0.1-0.3-0.1-0.4-0.2C61.4,60.2,60.1,59.4,58.7,58.7z M71.6,43c0,0.9,0,1.7,0,2.6
					c-0.8,0.5-1.7,0.9-2.5,1.4c-0.3,0.2-0.6,0.3-0.9,0.6c-0.2,0.1-0.3,0.2-0.4,0.4c0,0.1-0.1,0.2-0.1,0.2c-0.2,0.6-0.1,1.4-0.1,1.9
					c0,0.7,0,1.5,0,2.2c-0.2,0.1-0.5,0.3-0.7,0.4C66,52.2,65,51.6,64,51c0,0,0,0,0,0c0-1,0-2,0-2.9c0-0.4,0-0.7,0-1.1
					c0-0.3,0-0.6,0-0.9c0-0.1,0-0.3,0-0.5c0,0,0,0,0,0c0.2-0.1,0.3-0.2,0.4-0.3c0.7-0.4,1.5-0.9,2.2-1.3c1.2-0.7,2.3-1.4,3.5-2
					c0.5-0.3,1-0.6,1.5-0.9C71.6,41.8,71.6,42.4,71.6,43z M57.5,38.6c1.6-0.9,3.3-1.9,4.9-2.8c0.2-0.1,0.5-0.2,0.8-0.4
					c0.1,0.1,0.3,0.1,0.4,0.2c1.6,0.9,3.1,1.8,4.7,2.7c0.8,0.5,1.7,1,2.5,1.5c0,0,0.1,0,0.1,0c-0.1,0.1-0.2,0.1-0.3,0.2
					c-1,0.6-2.1,1.2-3.1,1.8c-0.6,0.3-1.1,0.7-1.7,1c-0.8,0.5-1.7,0.9-2.5,1.4c-0.4-0.2-0.7-0.4-1.1-0.6c-1-0.6-2.1-1.2-3.1-1.8
					c-0.9-0.5-1.8-1-2.7-1.5c-0.3-0.2-0.6-0.3-0.8-0.5C56.2,39.4,56.9,39,57.5,38.6z M54.7,42.9c0-0.6,0-1.2,0-1.8
					c2,1.2,4.1,2.4,6.1,3.6c0.5,0.3,1,0.6,1.5,0.9c0,0.5,0,1.1,0,1.6c0,1.2,0,2.5,0,3.7c-0.5,0.2-0.9,0.6-1.2,0.8
					c-0.6,0.3-1.2,0.7-1.8,1c-0.2-0.1-0.5-0.3-0.7-0.4c0-0.1,0-0.1,0-0.2c0-0.6,0-1.1,0-1.7c0-0.5,0-0.9,0-1.4c0-0.2,0-0.4,0-0.6
					c0,0,0,0,0-0.1c0,0,0,0,0,0c0,0,0-0.1,0-0.1c0,0,0,0,0,0c0,0,0-0.1,0-0.1c0,0,0,0,0,0c0,0,0-0.1-0.1-0.1c0,0-0.1-0.1-0.1-0.1
					c-0.1-0.2-0.3-0.4-0.6-0.5c-0.4-0.3-0.9-0.5-1.2-0.7c-0.7-0.4-1.3-0.8-2-1.2C54.7,44.7,54.7,43.8,54.7,42.9z M43,47.1
					c1.6-0.9,3.3-1.9,4.9-2.8c0.2-0.1,0.5-0.2,0.8-0.4c0.3,0.2,0.5,0.3,0.8,0.5c1.3,0.8,2.7,1.5,4,2.3c0,0,0,0,0,0l0,0
					c0.6,0.4,1.3,0.7,1.9,1.1c0.3,0.2,0.6,0.3,0.9,0.5c-0.2,0.1-0.3,0.2-0.5,0.3c-0.5,0.3-1.1,0.6-1.6,0.9c-0.2,0.1-0.4,0.2-0.6,0.3
					c-0.7,0.4-1.3,0.8-2,1.1c-0.7,0.4-1.3,0.8-2,1.1c-0.3,0.2-0.7,0.4-1.1,0.6c-0.2-0.1-0.3-0.2-0.5-0.2c-0.1,0-0.2-0.1-0.2-0.1
					c-0.1-0.1-0.3-0.2-0.4-0.2c-1-0.6-2.1-1.2-3.1-1.8s-2.1-1.2-3.1-1.8c-0.1-0.1-0.2-0.1-0.3-0.2c0,0-0.1,0-0.1-0.1
					C41.7,47.9,42.3,47.5,43,47.1z M41.5,59.3c-0.4-0.2-0.9-0.6-1.3-0.8c0-0.1,0-0.3,0-0.4c0-1.8,0-3.6,0-5.4c0-1,0-2,0-2.9
					c0,0,0-0.1,0-0.1c2.4,1.4,4.8,2.8,7.2,4.2c0.2,0.1,0.3,0.2,0.5,0.3c0,0.1,0,0.3,0,0.4c0,1.8,0,3.6,0,5.4c0,1,0,2,0,3
					c-0.3-0.1-0.5-0.3-0.8-0.4c-0.6-0.4-1.2-0.7-1.8-1.1l0,0C44,60.7,42.8,60,41.5,59.3z M48.7,69.7C48.7,69.7,48.6,69.7,48.7,69.7
					c-0.4-0.2-0.8-0.4-1.1-0.6c-1-0.6-2.1-1.2-3.1-1.8c-1-0.6-2.1-1.2-3.1-1.8c-0.1-0.1-0.3-0.2-0.4-0.2c0.5-0.3,1.1-0.6,1.6-0.9
					c0.7-0.4,1.5-0.9,2.2-1.3c1,0.6,2.1,1.2,3.1,1.7c0,0,0.1,0.1,0.1,0.1c0,0,0,0,0,0c0,0,0,0,0,0c0,0,0,0,0,0
					c0.1,0,0.2,0.1,0.3,0.1c0,0,0.1,0,0.1,0c0.1,0,0.1,0,0.1,0c0,0,0,0,0,0c0,0,0.1,0,0.1,0c0,0,0,0,0,0c0,0,0.1,0,0.1,0
					c0.3-0.1,0.5-0.3,0.7-0.4c0.4-0.2,0.8-0.5,1.2-0.7c0.5-0.3,0.9-0.5,1.4-0.8c0.2,0.1,0.5,0.3,0.7,0.4c0,0.7,0,1.5,0,2.2
					c0,0.4-0.1,1,0,1.5c-0.8,0.5-1.6,0.9-2.4,1.4c0,0-0.1,0-0.1,0.1c-0.6,0.3-1.1,0.7-1.7,1C48.8,69.7,48.7,69.7,48.7,69.7z
					 M53.6,73.1c-0.1,0.1-0.2,0.2-0.3,0.4c0,0,0,0,0,0v0c-0.2,0.6-0.1,1.5-0.1,2c0,0.2,0,0.5,0,0.7c0,0.5,0,1,0,1.5
					c-0.7,0.4-1.5,0.8-2.2,1.3c-0.5,0.3-1,0.6-1.5,0.9c0-2,0-4.1,0-6.1c0-0.6,0-1.2,0-1.8c0-0.2,0-0.4,0-0.6
					c0.1-0.1,0.1-0.2,0.1-0.4c1.5-0.9,3-1.7,4.5-2.6c0.6,0.3,1.1,0.7,1.7,1c0.4,0.3,0.9,0.5,1.3,0.8c0,0.3,0,0.6,0,0.8
					c-0.1,0-0.1,0.1-0.2,0.1c-0.6,0.3-1.2,0.7-1.8,1C54.7,72.4,54,72.7,53.6,73.1z M62.4,85.5c0,0.6,0,1.2,0,1.9c0,0.2,0,0.4,0,0.7
					c0,0.1,0,0.3,0,0.4c-0.7-0.4-1.3-0.8-2-1.2c-1.6-0.9-3.3-1.9-4.9-2.8c-0.2-0.1-0.5-0.4-0.8-0.5c0-0.3,0-0.6,0-0.8
					c0-1.6,0-3.2,0-4.8c0,0,0-0.1,0-0.1c0-0.4,0-0.8,0-1.2c0,0,0,0,0,0c0-0.2,0-0.4,0-0.6c0-0.4,0-0.8,0-1.2
					c0.1,0.1,0.3,0.2,0.4,0.2c1,0.6,2.1,1.2,3.1,1.8c0.3,0.2,0.6,0.3,0.9,0.5c0.4,0.2,0.7,0.4,1.1,0.6c0.7,0.4,1.5,0.9,2.2,1.3
					c0,0.1,0,0.2,0,0.3C62.4,81.8,62.4,83.7,62.4,85.5z M63.2,78.2c-0.1-0.1-0.3-0.1-0.4-0.2c-0.8-0.4-1.5-0.9-2.3-1.3
					c-1.7-1-3.3-1.9-5-2.9c0,0,0,0,0,0c0,0,0,0,0.1,0c0,0,0,0,0,0c0.7-0.4,1.3-0.8,2-1.2c0.2-0.1,0.4-0.2,0.6-0.4c0,0,0,0,0.1,0l0,0
					c0.4-0.2,0.7-0.4,1.1-0.6c0.7,0.4,1.4,0.8,2.1,1.2c0.4,0.2,0.8,0.5,1.2,0.7c0,0,0,0,0,0c0.1,0.1,0.2,0.1,0.3,0.1
					c0.1,0,0.2,0,0.3,0c0,0,0,0,0,0c0.1,0,0.2,0,0.3,0c0,0,0.1,0,0.1,0c0.6-0.2,1.2-0.7,1.6-0.9c0.6-0.3,1.1-0.7,1.7-1
					c0.4,0.2,0.7,0.4,1.1,0.6c0.6,0.4,1.3,0.7,1.9,1.1c0,0,0,0,0.1,0c0.2,0.1,0.5,0.3,0.7,0.4c0,0,0,0,0.1,0
					c-2.3,1.3-4.5,2.6-6.8,3.9C63.8,77.9,63.5,78,63.2,78.2z M71.6,75.9c0,0.8,0,1.5,0,2.3c0,1.4,0,2.8,0,4.2c0,0.4,0,0.8,0,1.2
					c0,0.1,0,0.2,0,0.4c-0.1,0.1-0.2,0.2-0.3,0.2c-1.6,0.9-3.1,1.8-4.7,2.7c-0.8,0.5-1.7,1-2.5,1.5c0,0,0,0,0,0c0.1-2.7,0-5.4,0-8.1
					c0-0.2,0-0.5,0-0.8c0.2-0.1,0.4-0.3,0.6-0.4c0.4-0.2,0.8-0.5,1.2-0.7c0.1-0.1,0.3-0.2,0.4-0.3c0.9-0.5,1.7-1,2.6-1.5
					c0.7-0.4,1.5-0.9,2.2-1.3c0.1-0.1,0.3-0.1,0.5-0.2C71.6,75.4,71.6,75.7,71.6,75.9z M76.9,77c0,0.6,0,1.2,0,1.9
					c0,0.2,0,0.4,0,0.7c0,0.1,0,0.3,0,0.4c-0.5-0.3-1-0.6-1.5-0.9c-0.7-0.4-1.5-0.8-2.2-1.3c0-0.6,0-1.1,0-1.7c0-0.5,0-1.1,0-1.6
					c0-0.2,0-0.4,0-0.5c0,0,0,0,0-0.1c0,0,0,0,0-0.1c0,0,0-0.1,0-0.1c0,0,0,0,0,0c0,0,0-0.1,0-0.1c0,0,0,0,0,0c0,0,0-0.1-0.1-0.1
					c0,0,0,0,0,0c-0.1-0.1-0.2-0.2-0.3-0.3c0,0-0.1-0.1-0.1-0.1c-0.6-0.4-1.3-0.7-1.9-1.1c-0.5-0.3-1-0.6-1.5-0.9c0-0.3,0-0.6,0-0.8
					c0.4-0.2,0.8-0.5,1.2-0.7c0.2-0.1,0.4-0.2,0.6-0.3c0.4-0.2,0.8-0.5,1.3-0.7c1.4,0.8,2.8,1.6,4.2,2.4c0.1,0.1,0.3,0.2,0.4,0.3
					c0,0.1,0,0.2,0,0.3C76.9,73.3,76.9,75.2,76.9,77z M77.7,69.7c-0.1,0-0.2-0.1-0.3-0.1C77,69.3,76.5,69,76,68.8
					c-0.9-0.5-1.9-1.1-2.8-1.6c0-0.5,0-1.1,0-1.5c0-0.7,0-1.5,0-2.2c0.2-0.1,0.5-0.3,0.7-0.4c1,0.6,2,1.2,3,1.7
					c0.1,0,0.2,0.1,0.3,0.1c0.1,0.1,0.3,0.1,0.4,0.1c0.1,0,0.1,0,0.2,0c0,0,0.1,0,0.1,0c0,0,0,0,0,0c0,0,0,0,0,0c0,0,0.1,0,0.1,0
					c0,0,0,0,0.1,0c0,0,0,0,0,0c0.3-0.1,0.6-0.3,0.8-0.5c0.4-0.2,0.8-0.4,1.2-0.7c0.5-0.3,0.9-0.5,1.4-0.8c0.8,0.4,1.5,0.9,2.3,1.3
					c0.5,0.3,1.1,0.6,1.6,0.9c-2.1,1.2-4.3,2.5-6.4,3.7c-0.1,0.1-0.3,0.2-0.4,0.3C78.3,69.4,78,69.6,77.7,69.7z M86.1,68.9
					c0,1.9,0,3.8,0,5.6c0,0.1-0.1,0.6-0.1,0.9c-0.1,0.1-0.2,0.1-0.3,0.2c-1.6,0.9-3.1,1.8-4.7,2.7c-0.8,0.5-1.7,1-2.5,1.5
					c0,0,0,0,0,0c0-0.4,0-0.8,0-1.2c0-0.4,0-0.8,0-1.2c0-0.4,0-0.8,0-1.1c0-0.9,0-1.7,0-2.6c0-0.6,0-1.3,0-1.9c0-0.2,0-0.5,0-0.8
					c0.4-0.2,0.8-0.5,1.2-0.7c1.3-0.7,2.5-1.5,3.8-2.2c0.7-0.4,1.3-0.8,2-1.1c0.2-0.1,0.4-0.3,0.7-0.4
					C86.1,67.4,86.1,68.2,86.1,68.9z"/>
			</g>
			<g>
				<path class="st4" d="M40.2,71.5c0-0.5,0-1,0-1.5c0-1-1.6-1-1.6,0c0,0.5,0,1,0,1.5C38.6,72.5,40.2,72.5,40.2,71.5z"/>
			</g>
		</g>
		<g>
			<g>
				<path class="st8" d="M66.3,61.3c-0.1,0-0.1,0.1-0.2,0.1c-0.5,0.3-1,0.6-1.5,0.9c-0.2,0.1-0.4,0.3-0.6,0.4c0,0.2,0,0.4,0,0.6
					c0,0.2,0,0.4,0,0.6c0,1.1,0,2.3,0,3.4c0,0.6,0,1.3,0,1.9c0,0.8,0,1.6,0,2.4c0.9-0.5,1.7-1,2.6-1.5c0.5-0.3,1-0.6,1.5-0.9l0,0
					c0,0,0,0,0.1,0c0.2-0.1,0.4-0.2,0.6-0.4c0.2-0.1,0.4-0.2,0.6-0.4c0.1-0.1,0.2-0.1,0.3-0.2c0,0,0,0,0,0c0.5-0.3,1-0.6,1.6-0.9
					c0.1-0.1,0.3-0.2,0.4-0.2c0-0.3,0-0.6,0-0.9c0-0.8,0-1.5,0-2.3c0-0.2,0-0.5,0-0.7c0,0,0-0.1,0-0.1v0c0-0.3,0-0.6,0-0.9
					c0-0.8,0-1.6,0-2.4c0-0.5,0-1,0-1.5c-0.9,0.5-1.8,1-2.7,1.6C68,60.2,67.2,60.8,66.3,61.3z"/>
			</g>
			<g>
				<path class="st8" d="M55.4,50.7c-0.3,0.2-0.6,0.4-0.9,0.5c-1.4,0.8-2.9,1.7-4.3,2.5c-0.2,0.1-0.4,0.3-0.6,0.4c0,0.3,0,0.6,0,0.8
					c0,1.9,0,3.7,0,5.6c0,0.8,0,1.6,0,2.4c0.5-0.3,1.1-0.6,1.6-0.9c0.3-0.2,0.6-0.4,1-0.6c0.4-0.2,0.7-0.4,1.1-0.6c0-1,0-1.9,0-2.9
					c0-0.2,0-0.4,0-0.7c0,0,0-0.1,0-0.1c0-0.1,0-0.1,0-0.2c0-0.1,0-0.2,0-0.3c0-0.1,0.1-0.2,0.1-0.3c0-0.1,0.1-0.2,0.2-0.2
					c0.1-0.1,0.2-0.2,0.3-0.2c0.4-0.4,1.1-0.6,1.4-0.8c0.7-0.4,1.3-0.8,2-1.2c0-0.7,0-1.5,0-2.2c0-0.7,0-1.4,0-2.1
					c-0.1,0.1-0.2,0.1-0.3,0.2C56.3,50.1,55.8,50.4,55.4,50.7z"/>
			</g>
			<g>
				<path class="st8" d="M66.6,44.1c-0.7,0.4-1.5,0.9-2.2,1.3c-0.1,0-0.2,0.2-0.4,0.3c0,0,0,0,0,0c0,0.2,0,0.3,0,0.5
					c0,0.3,0,0.6,0,0.9c0,0.4,0,0.7,0,1.1c0,1,0,2,0,2.9c0,0,0,0,0,0c1,0.6,1.9,1.1,2.9,1.7c0.2-0.1,0.5-0.3,0.7-0.4
					c0-0.7,0-1.5,0-2.2c0-0.5-0.1-1.3,0.1-1.9c0-0.1,0.1-0.2,0.1-0.2c0.1-0.1,0.2-0.3,0.4-0.4c0.3-0.2,0.6-0.4,0.9-0.6
					c0.8-0.5,1.7-1,2.5-1.4c0-0.9,0-1.7,0-2.6c0-0.6,0-1.2,0-1.8c-0.5,0.3-1,0.6-1.5,0.9C68.9,42.7,67.8,43.4,66.6,44.1z"/>
			</g>
			<g>
				<path class="st8" d="M69,76.7c-0.9,0.5-1.7,1-2.6,1.5c-0.1,0.1-0.3,0.2-0.4,0.3c-0.4,0.2-0.8,0.5-1.2,0.7
					c-0.2,0.1-0.4,0.3-0.6,0.4c0,0.3,0,0.5,0,0.8c0,2.7,0.1,5.4,0,8.1c0,0,0,0,0,0c0.8-0.5,1.7-1,2.5-1.5c1.6-0.9,3.1-1.8,4.7-2.7
					c0.1-0.1,0.2-0.1,0.3-0.2c0-0.2,0-0.3,0-0.4c0-0.4,0-0.8,0-1.2c0-1.4,0-2.8,0-4.2c0-0.8,0-1.5,0-2.3c0-0.3,0-0.5,0-0.8
					c-0.2,0.1-0.3,0.2-0.5,0.2C70.4,75.8,69.7,76.3,69,76.7z"/>
			</g>
			<g>
				<path class="st8" d="M85.5,67c-0.7,0.4-1.3,0.8-2,1.1c-1.3,0.7-2.5,1.5-3.8,2.2c-0.4,0.2-0.8,0.5-1.2,0.7c0,0.3,0,0.6,0,0.8
					c0,0.6,0,1.3,0,1.9c0,0.9,0,1.7,0,2.6c0,0.4,0,0.8,0,1.1c0,0.4,0,0.8,0,1.2c0,0.4,0,0.8,0,1.2c0,0,0,0,0,0
					c0.8-0.5,1.7-1,2.5-1.5c1.6-0.9,3.1-1.8,4.7-2.7c0.1-0.1,0.2-0.1,0.3-0.2c0-0.3,0.1-0.8,0.1-0.9c0-1.9,0-3.8,0-5.6
					c0-0.8,0-1.5,0-2.3C85.9,66.8,85.7,66.9,85.5,67z"/>
			</g>
			<g>
				<path class="st8" d="M54.1,68.4c-1.5,0.9-3,1.7-4.5,2.6c0,0.2,0,0.3-0.1,0.4c0,0.2,0,0.4,0,0.6c0,0.6,0,1.2,0,1.8
					c0,2,0,4.1,0,6.1c0.5-0.3,1-0.6,1.5-0.9c0.7-0.4,1.5-0.8,2.2-1.3c0-0.5,0-1,0-1.5c0-0.2,0-0.5,0-0.7c0-0.5-0.1-1.4,0.1-2v0
					c0,0,0,0,0,0c0.1-0.2,0.2-0.3,0.3-0.4c0.4-0.4,1.2-0.7,1.6-1c0.6-0.3,1.2-0.7,1.8-1c0.1,0,0.1-0.1,0.2-0.1c0-0.3,0-0.6,0-0.8
					c-0.4-0.3-0.9-0.5-1.3-0.8C55.2,69.1,54.6,68.8,54.1,68.4z"/>
			</g>
		</g>
	</g>
</g>
<g>
	<g>
		<path class="st4" d="M81.4,91.7C87.6,90.5,92,84.9,92,78.8c-0.1-5.5-3.5-10.5-8.7-12.4c-5.1-1.9-11.1-0.2-14.6,4
			c-3.5,4.3-4,10.4-1.1,15.2C70.5,90.3,76,92.7,81.4,91.7z M70.5,85.7c-2.9-3.5-3.3-8.6-0.9-12.5c2.3-3.8,6.9-5.9,11.3-5
			c5.1,1,8.7,5.5,8.7,10.6c0,4.5-2.8,8.7-7.1,10.2C78.3,90.5,73.5,89.2,70.5,85.7z"/>
	</g>
	<circle class="st7" cx="78.9" cy="78.8" r="11.5"/>
	<path class="st8" d="M82.1,78.5c0.8-0.4,1.4-1.2,1.4-2.3c0-1.6-1.3-2.7-3.9-2.7v-1.2h-2.1v1.2h-3v10.3h3v1.3h2.1v-1.3h0.2
		c2.7,0,4.1-1,4.1-2.8C84,79.8,83.2,78.9,82.1,78.5z M76.9,75.3h2.4c1.2,0,1.8,0.4,1.8,1.2c0,0.8-0.6,1.2-1.8,1.2h-2.4V75.3z
		 M79.7,82.1h-2.8v-2.6h2.8c1.2,0,1.9,0.4,1.9,1.3C81.6,81.7,80.9,82.1,79.7,82.1z"/>
</g>
</svg>
