<?xml version="1.0" encoding="utf-8"?>
<!-- Generator: Adobe Illustrator 21.0.0, SVG Export Plug-In . SVG Version: 6.00 Build 0)  -->
<svg version="1.1" id="Layer_1" xmlns="http://www.w3.org/2000/svg" xmlns:xlink="http://www.w3.org/1999/xlink" x="0px" y="0px"
	 viewBox="0 0 98 98" style="enable-background:new 0 0 98 98;" xml:space="preserve">
<style type="text/css">
	.st0{fill:none;stroke:#E8E9EB;stroke-width:2;stroke-linecap:round;stroke-dasharray:34;}
	.st1{fill:#E8E9EB;}
	.st2{fill:#FFFFFF;stroke:#33006F;stroke-width:2.6;stroke-linecap:round;stroke-linejoin:round;}
	.st3{fill:#FFA632;stroke:#33006F;stroke-width:2.6;stroke-linecap:round;stroke-linejoin:round;}
</style>
<g id="icon_x2F_engineer">
	<g id="Group-2" transform="translate(16.000000, 16.000000)">
		<path id="Oval-4-Copy" class="st0" d="M33,81c26.5,0,48-21.5,48-48S59.5-15,33-15S-15,6.5-15,33S6.5,81,33,81z"/>
		<circle id="Oval-4" class="st1" cx="32.5" cy="33.5" r="40.5"/>
		<g id="Group" transform="translate(21.000000, 47.000000)">
			<path id="Oval-5" class="st2" d="M45,19.5C45,4.3,32.7-13,17.5-13S-10,4.1-10,19.5C18,19.5,17.5,19.5,45,19.5z"/>
			<rect id="Rectangle-9" x="-15" y="15" class="st3" width="66" height="6"/>
			<rect id="Rectangle-8" x="11" y="-15" class="st2" width="14" height="21"/>
		</g>
		<g id="Group-9" transform="translate(8.000000, 31.000000)">
			<path id="Combined-Shape" class="st2" d="M-1.8-9.4V-13c0-1.1,0.9-2,2-2h4c1.1,0,2,0.9,2,2v3.6C7.8-8.9,9.3-8,10.5-6.9l3.1-1.8
				c1-0.6,2.2-0.2,2.7,0.7l2,3.5c0.6,1,0.2,2.2-0.7,2.7l-2.8,1.6c0.3,1,0.4,2.1,0.4,3.2c0,0.8-0.1,1.5-0.2,2.3l2.6,1.5
				c1,0.6,1.3,1.8,0.7,2.7l-2,3.5c-0.6,1-1.8,1.3-2.7,0.7l-2.4-1.4c-1.4,1.4-3.1,2.4-5,3V18c0,1.1-0.9,2-2,2h-4c-1.1,0-2-0.9-2-2
				v-2.6c-1.9-0.6-3.6-1.7-5-3l-2.4,1.4c-1,0.6-2.2,0.2-2.7-0.7l-2-3.5c-0.6-1-0.2-2.2,0.7-2.7l2.6-1.5c-0.1-0.7-0.2-1.5-0.2-2.3
				c0-1.1,0.1-2.2,0.4-3.2l-2.8-1.6c-1-0.6-1.3-1.8-0.7-2.7l2-3.5c0.6-1,1.8-1.3,2.7-0.7l3.1,1.8C-4.9-8-3.5-8.9-1.8-9.4z"/>
			<circle id="Oval-6" class="st3" cx="2.5" cy="2.5" r="6.5"/>
		</g>
		<g id="Group-9_1_" transform="translate(38.000000, 11.000000)">
			<path id="Combined-Shape_1_" class="st2" d="M-4-8.2v-4.3c0-1.1,0.9-2,2-2h4c1.1,0,2,0.9,2,2v4.3c0.5,0.2,1.1,0.5,1.5,0.8
				l3.3-1.9c1-0.6,2.2-0.2,2.7,0.7l2,3.5c0.6,1,0.2,2.2-0.7,2.7l-3,1.7C10-0.1,10,0.5,10,1c0,0.2,0,0.4,0,0.6l3.1,1.8
				c1,0.6,1.3,1.8,0.7,2.7l-2,3.5c-0.6,1-1.8,1.3-2.7,0.7L6.3,8.8c-0.7,0.6-1.5,1-2.3,1.4v3.3c0,1.1-0.9,2-2,2h-4c-1.1,0-2-0.9-2-2
				v-3.3c-0.8-0.4-1.6-0.8-2.3-1.4l-2.5,1.5c-1,0.6-2.2,0.2-2.7-0.7l-2-3.5c-0.6-1-0.2-2.2,0.7-2.7l2.9-1.6c0-0.2,0-0.4,0-0.6
				c0-0.5,0-1.1,0.1-1.6l-3.2-1.9c-1-0.6-1.3-1.8-0.7-2.7l2-3.5c0.6-1,1.8-1.3,2.7-0.7l3.6,2.1C-5.1-7.6-4.5-7.9-4-8.2z"/>
			<circle id="Oval-6_1_" class="st3" cx="0" cy="1" r="5"/>
		</g>
	</g>
</g>
</svg>
