<svg width="105" height="77" viewBox="0 0 105 77" fill="none" xmlns="http://www.w3.org/2000/svg">
<path d="M52.5 24C23.5051 24 0 47.5051 0 76.5H105C105 47.5051 81.4949 24 52.5 24Z" fill="#FDC98D"/>
<path fill-rule="evenodd" clip-rule="evenodd" d="M52.0647 22.0315C54.432 22.0315 56.3533 20.1115 56.3533 17.7458C56.3533 15.38 54.432 13.4601 52.0647 13.4601C49.6975 13.4601 47.7762 15.38 47.7762 17.7458C47.7762 20.1115 49.6975 22.0315 52.0647 22.0315Z" stroke="#0E1B2C" stroke-width="2" stroke-linecap="round"/>
<path fill-rule="evenodd" clip-rule="evenodd" d="M64.9303 17.7458C64.9303 28.46 52.0647 36.8887 52.0647 36.8887C52.0647 36.8887 39.1992 28.46 39.1992 17.7458C39.1992 10.6465 44.9608 4.88867 52.0647 4.88867C59.1687 4.88867 64.9303 10.6465 64.9303 17.7458Z" stroke="#0E1B2C" stroke-width="2" stroke-linecap="round"/>
<path d="M59.0625 35.2053C60.8075 36.789 62.1991 37.7053 62.1991 37.7053C62.1991 37.7053 72.1991 31.1205 72.1991 22.7499C72.1991 19.2443 70.41 16.1574 67.6991 14.3604" stroke="#0E1B2C" stroke-width="2" stroke-linecap="round"/>
<path d="M44.1992 35.2053C42.4542 36.789 41.0626 37.7053 41.0626 37.7053C41.0626 37.7053 31.0626 31.1205 31.0626 22.7499C31.0626 19.2443 32.8517 16.1574 35.5626 14.3604" stroke="#0E1B2C" stroke-width="2" stroke-linecap="round"/>
<path d="M77.3956 24.7051C81.3625 34.4607 79.3887 46.0663 71.4741 53.9808C60.93 64.525 43.8345 64.525 33.2904 53.9808C25.6446 46.335 23.5429 35.2446 26.9853 25.7051" stroke="#0E1B2C" stroke-width="2" stroke-linecap="round"/>
</svg>
