<?xml version="1.0" encoding="UTF-8"?><svg id="a" xmlns="http://www.w3.org/2000/svg" xmlns:xlink="http://www.w3.org/1999/xlink" viewBox="0 0 1370 1370"><defs><style>.h{stroke:#e8e9eb;stroke-dasharray:0 0 527.31 527.31;stroke-linecap:round;stroke-width:26px;}.h,.i{fill:none;}.j{fill:#e8e9eb;}.k{fill:#37246b;}.l{clip-path:url(#e);}.m{clip-path:url(#f);}.n{fill:#faa535;}.o{clip-path:url(#g);}</style><clipPath id="e"><rect class="i" x="343.59" y="640.89" width="704" height="424.75"/></clipPath><clipPath id="f"><rect class="i" x="846.88" y="361.63" width="200.72" height="200.35"/></clipPath><clipPath id="g"><rect class="i" x="343.59" y="361.63" width="166.17" height="74.84"/></clipPath></defs><g id="b" transform="translate(16.000000, 16.000000)"><circle id="c" class="j" cx="679.34" cy="691.99" r="547.74"/><g id="d"><path class="h" d="M446.41,1312.02c346.17,132.46,734.48-40.93,866.94-387.1C1598.38,80.52,410.55-373.72,59.31,445.08c-132.45,346.16,40.93,734.48,387.1,866.94h0Z"/></g></g><path class="k" d="M640.6,603.64c45.64,0,82.5-36.84,82.5-82.5s-36.86-82.5-82.5-82.5-82.51,36.84-82.51,82.5,36.86,82.5,82.51,82.5Zm0-143c33.54,0,60.49,26.95,60.49,60.5s-26.95,60.5-60.49,60.5-60.5-26.95-60.5-60.5,26.95-60.5,60.5-60.5Z"/><g class="l"><path class="k" d="M1025.59,774.14h-11v-21.99h16.5c6.05,0,11-4.96,11-11.01v-44c0-6.04-4.95-11-11-11h-22.01v-32.99c0-6.05-4.95-11.01-11-11.01h-131.99c-6.05,0-11.01,4.96-11.01,11.01v43.99c0,6.05,4.96,11.01,11.01,11.01h21.99v21.99h-16.5c-6.05,0-11,4.95-11,11v33H444.23c2.2-4.95,3.85-10.45,3.85-16.5,0-21.45-17.05-38.5-38.5-38.5s-38.5,17.05-38.5,38.5c0,6.05,1.64,11.56,3.85,16.5h-9.36c-12.1,0-21.99,9.9-21.99,21.99v22.01c0,12.1,9.89,21.99,21.99,21.99h33v214.5c0,6.05,4.95,11,11,11s11-4.95,11-11v-148.49h368.5v87.99c0,6.05,4.95,11.01,11,11.01h170.5v49.49c0,6.05,4.96,11,11,11s11.01-4.95,11.01-11v-214.5h32.99c12.1,0,22.01-9.89,22.01-21.99v-22.01c0-12.09-9.9-21.99-22.01-21.99Zm-148.49-110h110v21.99h-110v-21.99Zm32.99,44h110.01v21.99h-110.01v-21.99Zm-27.5,44h110.01v21.99h-110.01v-21.99Zm-489.5,5.49c0-9.34,7.16-16.5,16.5-16.5s16.5,7.16,16.5,16.5-7.16,16.5-16.5,16.5-16.5-7.14-16.5-16.5Zm418,225.5v-76.99h159.5v76.99h-159.5Zm159.5-99H420.59v-44H970.59v44Zm55-66H365.59v-22.01h660v22.01Z"/></g><g class="m"><path class="k" d="M948.59,559.64c54.45,0,99-44.55,99-99s-44.55-99-99-99-99,44.55-99,99,44.55,99,99,99Zm0-175.99c42.35,0,76.99,34.64,76.99,76.99s-34.64,77.01-76.99,77.01-77.01-34.66-77.01-77.01,34.66-76.99,77.01-76.99Z"/></g><path class="k" d="M948.59,471.63h32.99c6.05,0,11.01-4.95,11.01-11s-4.96-11-11.01-11h-21.99v-33c0-6.05-4.95-11-11-11s-11,4.95-11,11v44c0,6.05,4.95,11,11,11Z"/><g class="o"><path class="k" d="M354.59,433.14h143c6.05,0,11-4.95,11-11s-4.95-11-11-11h-33v-38.51c0-6.04-4.95-11-11-11s-11,4.96-11,11v38.51h-33v-38.51c0-6.04-4.95-11-11-11s-11,4.96-11,11v38.51h-33c-6.05,0-11,4.95-11,11s4.95,11,11,11Z"/></g><ellipse class="n" cx="640.59" cy="521.14" rx="60.5" ry="60.5"/><path class="n" d="M609.71,620.69l-25.56-11.54s-21.62-.06-35.52,7.55c-13.91,7.61-30.13,18.14-37,29.93-6.87,11.79-13.49,17.52-13.49,48.61v56.92h86.02l13.37-54.45,12.2-77.01Z"/><path class="n" d="M670.29,620.69l25.56-11.54s21.61-.06,35.51,7.55c13.9,7.61,30.12,18.14,36.99,29.93,6.87,11.79,13.49,17.52,13.49,48.61v56.92h-85.99l-13.36-54.45-12.19-77.01Z"/><path class="n" d="M593.86,680.64s0,13.45,2.12,17.57c2.13,4.12,20.34,28.64,20.34,28.64l8.79,12.29s5.34,5.78,9.78,5.78h4.43s8.08,.91,12.5-4.34c4.42-5.25,16.07-21.53,16.07-21.53l8.36-11.69,6.33-9.43s1.75-2.6,2.04-6.19,11.45,60.41,11.45,60.41h-115.29l13.07-71.5Z"/><path class="k" d="M608.68,620.69l-11.54,77.01c-1.65,7.14,1.65,15.94,8.25,20.34l21.99,24.21,1.65,1.09c3.31,2.2,7.7,3.31,12.1,3.31s8.8-1.11,12.1-3.31l1.64-1.09,22.01-24.21c6.6-4.95,9.89-13.2,7.69-20.9l-13.74-75.9c-7.14,2.2-14.3,3.31-21.45,3.85l13.74,75.9-22.54,23.66-22.01-23.66,11-75.9c-7.14-.55-14.29-2.2-20.9-4.4Z"/><path class="k" d="M481.09,752.15h21.99v-64.9c0-41.26,37.95-78.1,81.41-78.1-8.25-5.51-15.96-12.1-22.55-19.25-45.09,10.45-80.85,51.69-80.85,97.35v64.9Z"/><path class="k" d="M696.69,609.14c43.46,0,81.41,36.84,81.41,78.1v64.9h21.99v-64.9c0-45.65-35.75-86.9-80.85-97.35-6.6,7.69-14.3,13.74-22.55,19.25Z"/></svg>