<?xml version="1.0" encoding="UTF-8"?><svg id="a" xmlns="http://www.w3.org/2000/svg" xmlns:xlink="http://www.w3.org/1999/xlink" viewBox="0 0 1370 1370"><defs><style>.f{fill:#d0b900;}.g{stroke:#e8e9eb;stroke-dasharray:0 0 527.31 527.31;stroke-linecap:round;stroke-width:26px;}.g,.h{fill:none;}.i{fill:#e8e9eb;}.j{fill:#f7931e;}.k{fill:#37246b;}.l{clip-path:url(#e);}</style><clipPath id="e"><rect class="h" x="247.09" y="387.86" width="891.5" height="594.34"/></clipPath></defs><g id="b" transform="translate(16.000000, 16.000000)"><circle id="c" class="i" cx="678.01" cy="692.02" r="547.74"/><g id="d"><path class="g" d="M445.08,1312.04c346.17,132.46,734.48-40.93,866.94-387.09C1597.05,80.55,409.22-373.7,57.98,445.11c-132.45,346.16,40.93,734.48,387.1,866.94h0Z"/></g></g><path class="f" d="M784.44,674.96c1.93,0,1.93-3,0-3s-1.93,3,0,3h0Z"/><path class="j" d="M707.83,897.55c-8.23-5.25-25.95-4.05-25.95-4.05,0,0-24.75,0-41.53-1.4-16.78-1.4-36.2-13.67-36.2-13.67,0,0-177.53-120.62-194.65-131.99-17.12-11.38-30.97-12.17-55.39-9-7.56,.98-24.71,5.53-38.37,14.17-12.18,7.7-21.14,19.4-24.95,23.19-19.49,19.42-19.01,57.02-19.01,57.02v137.95l165.4-.42v-85.03l-17.87-11.61s-31.44-20.42-42.74-30.59c-.19-.95-.32-1.83-.34-2.95l-.05-5.1c.17-.13,.35-.27,.52-.4,.54-.54,.92-1.18,1.17-1.89,6.71-2.87,17.55-4,17.55-4l26.2,17.69s139.84,89.34,155.38,101c15.54,11.65,26.09,10.96,26.09,10.96h128.09v-22.84c0-22.83-15.11-31.81-23.35-37.06Z"/><g class="l"><g><path class="k" d="M365.88,685.66c61.31,0,111.2-49.81,111.2-111.06s-49.88-111.04-111.2-111.04-111.2,49.81-111.2,111.04,49.88,111.06,111.2,111.06Zm451.48,218.55c0,6.82,5.52,12.33,12.34,12.33h205.3c6.82,0,12.34-5.51,12.34-12.33,0-.12-.02-.24-.02-.35l52.78-196.74c1.77-6.57-2.14-13.34-8.74-15.09-6.58-1.77-13.35,2.14-15.11,8.72l-51.29,191.14h-195.26c-6.82,0-12.34,5.52-12.34,12.33Zm308.88,53.23h-370.36v-22.84c0-36.26-29.55-65.76-65.86-65.76h-32.89c-14.04,0-27.79-3.89-39.76-11.23l-195.29-132.72c-1.35-.91-2.8-1.52-4.29-1.84-15.9-7.41-32.91-11.16-50.64-11.16-66.2,0-120.05,53.79-120.05,119.92v137.95c0,6.8,5.52,12.33,12.34,12.33s12.34-5.52,12.34-12.33v-137.95c0-52.52,42.77-95.26,95.37-95.26,14.89,0,29.13,3.33,42.35,9.89,.34,.17,.69,.3,1.03,.44l193.19,131.29c.15,.08,.29,.19,.44,.27,15.93,9.87,34.24,15.07,52.98,15.07h32.89c22.7,0,41.16,18.44,41.16,41.11v22.84h-128.09c-5.22,0-10.29-1.5-14.67-4.34l-193-125.31c-5.71-3.7-13.35-2.09-17.08,3.62-3.72,5.71-2.09,13.35,3.62,17.06l55.22,35.85v85.03c0,6.82,5.52,12.34,12.34,12.34s12.34-5.52,12.34-12.34v-68.99l113.1,73.42c8.39,5.44,18.12,8.32,28.12,8.32h523.15c6.82,0,12.34-5.52,12.34-12.33s-5.52-12.33-12.34-12.33Zm-301-209.31c1.25,.42,2.59,.67,3.99,.67s2.73-.25,3.99-.67c97.64-2.02,176.45-81.98,176.45-179.97s-79.55-178.67-177.81-179.99c-.86-.17-1.73-.27-2.63-.27s-1.79,.1-2.63,.29c-66.16,1.03-123.79,37.82-154.29,91.85-.25,.39-.47,.79-.69,1.21-14.28,25.78-22.43,55.42-22.43,86.91,0,97.86,78.58,177.73,176.05,179.97Zm69.84-39.15c9.48-13.14,17.55-29.12,23.81-47.3h34.67c-15.27,20.16-35.33,36.49-58.49,47.3Zm73.76-71.96h-42.91c4.06-17.5,6.58-36.43,7.31-56.35h51.23c-1.6,20.09-7.06,39.12-15.63,56.35Zm-.15-138.02c8.71,17.41,14.23,36.68,15.81,57.02h-51.28c-.77-20.17-3.38-39.36-7.58-57.02h43.04Zm-15.38-24.65h-34.84c-6.4-18.29-14.65-34.34-24.33-47.44,23.42,10.74,43.73,27.15,59.18,47.44Zm-111.73-58.76c20.17,6.23,38.09,28.06,50.35,58.76h-50.35v-58.76Zm0,83.41h58.45c4.63,17.48,7.59,36.76,8.47,57.02h-66.92v-57.02Zm0,81.67h66.94c-.83,19.99-3.69,39.04-8.18,56.35h-58.76v-56.35Zm0,81h50.82c-12.26,31.31-30.4,53.62-50.82,59.93v-59.93Zm-136.29,0h35.35c6.32,18.39,14.5,34.56,24.12,47.78-23.56-10.81-43.97-27.33-59.46-47.78Zm111.6,59.58c-20.01-6.74-37.72-28.8-49.78-59.58h49.78v59.58Zm0-84.23h-57.71c-4.48-17.31-7.36-36.36-8.18-56.35h65.9v56.35Zm0-81h-65.88c.88-20.26,3.86-39.54,8.47-57.02h57.41v57.02Zm0-140.08v58.4h-49.31c12.04-30.16,29.57-51.75,49.31-58.4Zm-51.16,10.51c-9.83,13.17-18.2,29.39-24.69,47.89h-35.5c15.66-20.58,36.32-37.17,60.19-47.89Zm-75.56,72.55h43.7c-4.19,17.67-6.8,36.85-7.58,57.02h-51.93c1.58-20.34,7.11-39.61,15.81-57.02Zm-15.78,81.67h51.88c.74,19.92,3.27,38.85,7.31,56.35h-43.57c-8.55-17.23-14.01-36.26-15.63-56.35Z"/><ellipse class="j" cx="365.88" cy="574.59" rx="86.51" ry="86.39"/></g></g><path class="j" d="M378.4,845.43c-.39-.57-.71-1.08-1-1.59-.02-.39-.1-.78-.26-1.16-.37-.89-.6-1.78-.82-2.71-.02-.15-.03-.3-.05-.45-.02-.15-.04-.31-.06-.46,0-.03,0-.05,0-.08,.15-2.59,.61-5.2,2.09-7.36,3.64-5.33-5.02-10.34-8.63-5.05-2.13,3.12-3.27,6.81-3.48,10.56-.22,.8-.24,1.67,.01,2.55,.22,3.86,1.42,7.65,3.57,10.78,3.61,5.28,12.28,.28,8.63-5.05Z"/></svg>