<svg width="105" height="63" viewBox="0 0 105 63" fill="none" xmlns="http://www.w3.org/2000/svg">
<path d="M52.5 10C23.5051 10 0 33.5051 0 62.5H105C105 33.5051 81.4949 10 52.5 10Z" fill="#ADCBFF"/>
<path d="M77.2708 3.86816H57.4549L48.0684 11.1688V22.3804C50.5019 22.7281 55.369 21.859 55.369 15.6013L61.1052 12.7332" stroke="#0E1B2C" stroke-width="2" stroke-linecap="round" stroke-linejoin="round"/>
<path d="M10 1H22.2546V29.4202H10" stroke="#0E1B2C" stroke-width="2" stroke-linecap="round" stroke-linejoin="round"/>
<path d="M95 1H82.7454V29.4202H95" stroke="#0E1B2C" stroke-width="2" stroke-linecap="round" stroke-linejoin="round"/>
<path d="M22.5151 3.86816H48.5888" stroke="#0E1B2C" stroke-width="2" stroke-linecap="round" stroke-linejoin="round"/>
<path d="M31.1195 28.6375C33.1356 28.6375 34.7699 27.0032 34.7699 24.9872C34.7699 22.9712 33.1356 21.3369 31.1195 21.3369C29.1035 21.3369 27.4692 22.9712 27.4692 24.9872C27.4692 25.9818 27.867 26.8835 28.5122 27.5419" stroke="#0E1B2C" stroke-width="2" stroke-linecap="round"/>
<path d="M31.6421 34.1131C30.9969 33.4547 30.5991 32.553 30.5991 31.5584C30.5991 29.5424 34.8408 26.0303 36.8568 26.0303C38.8728 26.0303 40.5071 27.6646 40.5071 29.6806C40.5071 31.0031 38.6817 32.9694 36.8568 34.1658" stroke="#0E1B2C" stroke-width="2" stroke-linecap="round"/>
<path d="M40.2436 39.6414C42.2596 39.6414 45.1976 36.9114 45.1976 34.8954C45.1976 32.8794 43.5633 31.2451 41.5472 31.2451C39.5312 31.2451 36.5933 33.975 36.5933 35.991C36.5933 36.9857 36.991 37.8874 37.6362 38.5457" stroke="#0E1B2C" stroke-width="2" stroke-linecap="round"/>
<path d="M45.2006 43.4093C44.8097 43.2236 44.4571 42.9705 44.1577 42.665C43.5125 42.0066 43.1147 41.1049 43.1147 40.1103C43.1147 38.0943 44.749 36.46 46.7651 36.46C48.7811 36.46 50.4154 38.0943 50.4154 40.1103C50.4154 40.9629 50.123 41.7472 49.6332 42.3686" stroke="#0E1B2C" stroke-width="2" stroke-linecap="round"/>
<path d="M50.415 41.1532C50.415 42.1478 50.8128 43.0495 51.458 43.7079C52.1205 44.384 53.0439 44.8035 54.0653 44.8035C56.0814 44.8035 57.7157 43.1692 57.7157 41.1532C57.7157 39.1372 56.0814 37.5029 54.0653 37.5029" stroke="#0E1B2C" stroke-width="2" stroke-linecap="round"/>
<path d="M63.6398 35.6777C64.1729 36.3122 64.4939 37.1308 64.4939 38.0244C64.4939 40.0404 62.8596 41.6747 60.8436 41.6747C59.8222 41.6747 58.8988 41.2552 58.2363 40.579L55.1074 37.2422" stroke="#0E1B2C" stroke-width="2" stroke-linecap="round"/>
<path d="M70.4196 32.0273C70.9526 32.6619 71.2737 33.4804 71.2737 34.374C71.2737 36.39 69.6394 38.0243 67.6234 38.0243C66.602 38.0243 65.6785 37.6048 65.016 36.9287L60.3228 32.2354" stroke="#0E1B2C" stroke-width="2" stroke-linecap="round"/>
<path d="M61.1064 12.7334L78.315 29.6813C78.8049 30.3026 79.0972 31.0869 79.0972 31.9395C79.0972 33.9555 77.4629 35.5898 75.4469 35.5898C74.4255 35.5898 73.5021 35.1703 72.8396 34.4942L65.539 27.1936" stroke="#0E1B2C" stroke-width="2" stroke-linecap="round"/>
</svg>
