<svg width="152" height="48" viewBox="0 0 152 48" fill="none" xmlns="http://www.w3.org/2000/svg">
<path d="M6.48801 34.9078C6.48801 36.6836 5.41973 37.1281 4.53185 37.1281C3.64397 37.1281 2.57568 36.6836 2.57568 34.9078V31.6562H3.26793V35.0882C3.26793 35.8109 3.58419 36.5706 4.53185 36.5706C5.48059 36.5706 5.79682 35.8109 5.79682 35.0882V31.6562H6.48801V34.9078Z" fill="black"/>
<path d="M13.9084 31.6562H14.8257L16.9785 35.3969C17.0916 35.5925 17.2719 35.9533 17.3393 36.1348H17.3774C17.3622 35.9533 17.3393 35.6979 17.3393 35.4643V31.6562H18.0316V37.0151H17.1068L14.9615 33.2299C14.8485 33.0343 14.6681 32.6724 14.6007 32.492H14.5627C14.5779 32.6724 14.6007 32.9278 14.6007 33.1614V37.0151H13.9084V31.6562Z" fill="black"/>
<path d="M26.1508 37.0151H25.4585V31.6562H26.1508V37.0151Z" fill="black"/>
<path d="M35.0903 35.6979C35.1653 35.9163 35.2186 36.1348 35.2708 36.3521H35.3088C35.361 36.1348 35.4142 35.9163 35.4892 35.6979L36.8291 31.6562H37.5432L35.7152 37.0151H34.8198L33.0364 31.6562H33.796L35.0903 35.6979Z" fill="black"/>
<path d="M44.4214 31.6562H47.6414V32.2137H45.1136V33.9591H47.5143V34.5166H45.1136V36.4576H47.7175V37.0151H44.4214V31.6562Z" fill="black"/>
<path d="M54.8801 31.6562H56.7244C57.6427 31.6562 58.3654 32.1073 58.3654 33.094C58.3654 34.1254 57.6579 34.3732 57.3873 34.4634L58.6664 37.0151H57.8383L56.732 34.5916H55.5735V37.0151H54.8801V31.6562ZM55.5735 34.0352H56.6646C57.447 34.0352 57.6731 33.5602 57.6731 33.1462C57.6731 32.2507 56.8972 32.2137 56.5885 32.2137H55.5735V34.0352Z" fill="black"/>
<path d="M65.9879 35.7427C66.0857 36.1198 66.3867 36.5708 67.1018 36.5708C67.7789 36.5708 68.1397 36.0894 68.1397 35.6373C68.1397 35.0591 67.7713 34.8776 67.5757 34.7874L66.2813 34.1854C65.7771 33.9517 65.4837 33.5681 65.4837 33.0117C65.4837 31.9651 66.3944 31.5435 67.1616 31.5435C67.9213 31.5435 68.5461 31.8075 68.8015 32.5215L68.1245 32.7476C67.9962 32.2444 67.5453 32.101 67.1616 32.101C66.4987 32.101 66.2205 32.477 66.2205 32.9661C66.2205 33.4931 66.5824 33.6583 66.928 33.8094L67.8908 34.2299C68.2223 34.3734 68.8776 34.6972 68.8776 35.6231C68.8776 36.1274 68.5689 37.1283 67.041 37.1283C65.8673 37.1283 65.4304 36.3893 65.3174 35.9916L65.9879 35.7427Z" fill="black"/>
<path d="M76.7785 37.0151H76.0862V31.6562H76.7785V37.0151Z" fill="black"/>
<path d="M85.2278 32.2583H83.6716V31.6562H87.4785V32.2583H85.9201V37.0151H85.2278V32.2583Z" fill="black"/>
<path d="M94.3643 31.656H97.5843V32.2135H95.0565V33.9589H97.456V34.5164H95.0565V36.4573H97.6593V37.0148H94.3643V31.656ZM96.0791 30.2422H96.8931L95.8249 31.3181H95.2978L96.0791 30.2422Z" fill="black"/>
<path d="M6.49789 45.4057C6.49789 47.1815 5.42852 47.6249 4.54064 47.6249C3.65275 47.6249 2.58447 47.1815 2.58447 45.4057V42.1553H3.27675V45.5861C3.27675 46.3078 3.59298 47.0685 4.54064 47.0685C5.48937 47.0685 5.80455 46.3078 5.80455 45.5861V42.1553H6.49789V45.4057Z" fill="black"/>
<path d="M13.8713 42.1553H14.7896L16.9414 45.8937C17.0544 46.0893 17.2349 46.4512 17.3033 46.6316H17.3403C17.3261 46.4512 17.3033 46.1958 17.3033 45.9622V42.1553H17.9945V47.5119H17.0697L14.9255 43.7278C14.8125 43.5322 14.6321 43.1703 14.5636 42.9899H14.5267C14.5408 43.1703 14.5636 43.4267 14.5636 43.6604V47.5119H13.8713V42.1553Z" fill="black"/>
<path d="M26.0702 47.512H25.3779V42.1543H26.0702V47.512Z" fill="black"/>
<path d="M34.9631 46.1958C35.0392 46.4142 35.0914 46.6316 35.1446 46.85H35.1827C35.2348 46.6316 35.287 46.4142 35.362 46.1958L36.702 42.1553H37.417L35.588 47.5119H34.6936L32.9092 42.1553H33.6699L34.9631 46.1958Z" fill="black"/>
<path d="M44.2495 42.1553H47.4707V42.7106H44.9418V44.457H47.3424V45.0134H44.9418V46.9565H47.5457V47.5119H44.2495V42.1553Z" fill="black"/>
<path d="M54.6641 42.1553H56.5083C57.4255 42.1553 58.1482 42.6063 58.1482 43.5909C58.1482 44.6222 57.4407 44.8721 57.1701 44.9613L58.4492 47.5119H57.6211L56.5148 45.0895H55.3563V47.5119H54.6641V42.1553ZM55.3563 44.532H56.4474C57.2299 44.532 57.4559 44.0582 57.4559 43.6452C57.4559 42.7486 56.6811 42.7106 56.3724 42.7106H55.3563V44.532Z" fill="black"/>
<path d="M65.725 46.2406C65.8239 46.6177 66.1249 47.0687 66.8389 47.0687C67.517 47.0687 67.8779 46.5873 67.8779 46.1363C67.8779 45.556 67.5095 45.3745 67.3138 45.2853L66.0195 44.6833C65.5152 44.4507 65.2218 44.0671 65.2218 43.5096C65.2218 42.4641 66.1325 42.0425 66.8998 42.0425C67.6594 42.0425 68.2843 42.3055 68.5397 43.0206L67.8626 43.2466C67.7344 42.7412 67.2834 42.5989 66.8998 42.5989C66.2369 42.5989 65.9586 42.976 65.9586 43.465C65.9586 43.991 66.3205 44.1562 66.6661 44.3062L67.629 44.7289C67.9604 44.8724 68.6158 45.1951 68.6158 46.1211C68.6158 46.6242 68.3071 47.6251 66.7792 47.6251C65.6055 47.6251 65.1686 46.8883 65.0566 46.4895L65.725 46.2406Z" fill="black"/>
<path d="M76.4708 47.512H75.7786V42.1543H76.4708V47.512Z" fill="black"/>
<path d="M84.8759 42.7573H83.3196V42.1553H87.1265V42.7573H85.5692V47.5119H84.8759V42.7573Z" fill="black"/>
<path d="M95.3586 45.3232L93.4622 42.1553H94.2892L95.4944 44.2549C95.577 44.3961 95.6444 44.5559 95.7118 44.7059H95.727C95.7955 44.5559 95.8704 44.3961 95.9541 44.2549L97.1648 42.1553H97.9472L96.0508 45.3232V47.5119H95.3586V45.3232Z" fill="black"/>
<path d="M2.61914 39.1572V39.4941L97.8397 39.4854V39.1475L2.61914 39.1572Z" fill="black"/>
<path d="M7.37812 24.0542H8.12147C9.6701 24.0542 10.0102 23.4662 10.0102 21.8556V16.962L4.0646 6.30956C2.85721 4.14148 2.45402 3.86329 0.936908 3.86329H0.658691V2.93408C1.98997 2.9656 3.29083 3.02758 4.56017 3.02758C5.86101 3.02758 7.19337 2.9656 8.49313 2.93408V3.86329H7.93561C7.28573 3.86329 6.79019 4.0806 6.79019 4.85437C6.79019 5.28799 7.16184 6.12371 7.47157 6.68122L12.0544 14.9493L16.3275 6.77472C16.5764 6.30959 17.1644 5.13263 17.1644 4.57621C17.1644 4.04913 16.7927 3.86329 15.9559 3.86329H15.368V2.93408C16.6373 2.9656 17.4741 3.02758 18.4337 3.02758C19.4552 3.02758 20.5083 2.9656 21.4994 2.93408V3.86329H20.7257C19.4563 3.86329 19.177 4.26539 18.2174 6.0618L12.7358 16.3121V21.8556C12.7358 23.6825 13.4172 24.0542 14.6246 24.0542H15.2441V24.9833C13.9432 24.9518 12.6119 24.8899 11.3111 24.8899C9.94829 24.8899 8.52465 24.9518 7.37812 24.9833V24.0542Z" fill="black"/>
<path d="M35.2185 2.53223C41.3805 2.53223 46.7697 7.51823 46.7697 13.9584C46.7697 19.4095 42.5574 25.3856 35.1251 25.3856C28.4361 25.3856 23.6055 20.3387 23.6055 14.2072C23.6055 7.30088 29.1175 2.53223 35.2185 2.53223ZM35.1251 3.83305C30.79 3.83305 26.7016 6.49673 26.7016 13.6802C26.7016 18.6967 29.9847 24.2097 35.3109 24.2097C41.0403 24.2097 43.6724 19.9975 43.6724 14.2996C43.6724 9.31357 40.5448 3.83305 35.1251 3.83305Z" fill="black"/>
<path d="M51.6309 24.0542H52.1884C53.6131 24.0542 54.2325 23.5271 54.2325 21.5144V6.403C54.2325 4.39033 53.6131 3.86329 52.1884 3.86329H51.6309V2.93408C52.7144 2.9656 54.201 3.02758 55.5953 3.02758C57.6689 3.02758 59.1555 2.93408 60.5183 2.93408C65.9999 2.93408 66.9911 7.23875 66.9911 8.66349C66.9911 12.7204 64.1416 13.9582 62.593 14.4548L66.7433 21.3296C68.4463 24.1161 68.9418 24.3019 71.4501 24.4573V25.1072C70.8621 25.1072 70.3046 25.1376 69.7156 25.1376C66.9911 25.1376 65.7206 24.7975 64.0796 22.1034L60.4564 16.1882C59.7446 15.0427 59.3414 14.9808 56.9571 14.9189V20.7721C56.9571 23.714 57.4842 24.0542 58.7231 24.0542H59.6207V24.9833C58.2579 24.9518 56.9571 24.8899 55.5953 24.8899C54.201 24.8899 52.7144 24.9518 51.6309 24.9833V24.0542ZM56.9571 13.5256C57.4842 13.7114 58.2579 13.7419 59.0632 13.7419C61.8497 13.7419 64.1416 12.4726 64.1416 9.25144C64.1416 7.88865 63.2124 4.11105 58.9078 4.11105C58.1644 4.11105 57.5765 4.17301 56.9571 4.23495V13.5256Z" fill="black"/>
<path d="M76.2805 24.0542H76.8381C78.2628 24.0542 78.8823 23.5271 78.8823 21.5144V6.403C78.8823 4.39033 78.2628 3.86329 76.8381 3.86329H76.2805V2.93408C77.364 2.9656 78.8507 3.02758 80.245 3.02758C81.6067 3.02758 82.9087 2.9656 84.2704 2.93408V3.86329H83.3716C82.1338 3.86329 81.6067 4.20453 81.6067 7.14638V14.4233L88.3892 6.86705C88.6989 6.5269 89.8759 5.28799 89.8759 4.66854C89.8759 4.11104 89.4423 3.86329 88.8533 3.86329H88.2957V2.93408C89.4422 2.9656 90.742 3.02758 91.9505 3.02758C93.1894 3.02758 94.3968 2.9656 95.6357 2.93408V3.86329H95.0782C93.5611 3.86329 93.034 4.1415 91.2071 6.0618L85.23 12.3487L93.2198 21.7013C94.9543 23.7444 95.853 24.0542 97.1213 24.0542H97.5864V24.9833C96.5953 24.9518 95.5726 24.8899 94.5826 24.8899C93.5915 24.8899 92.5699 24.9518 91.5788 24.9833C91.4245 24.0857 91.331 23.6205 89.5661 21.6078L83.2173 14.3309L81.6067 16.0339V20.7721C81.6067 23.714 82.1338 24.0542 83.3716 24.0542H84.2704V24.9833C82.9087 24.9518 81.6067 24.8899 80.245 24.8899C78.8507 24.8899 77.364 24.9518 76.2805 24.9833V24.0542Z" fill="black"/>
<path d="M137.316 41.8261C129.318 41.8261 122.392 36.8813 122.392 26.0725V0.375H104.519V47.5283H151.674V30.3239C150.256 37.1802 145.271 41.8261 137.316 41.8261Z" fill="black"/>
<path d="M137.316 32.1724C141.608 32.1724 142.925 28.4014 142.925 24.7129V0.375H131.951V24.7129C131.951 28.5546 133.316 32.1724 137.316 32.1724Z" fill="black"/>
</svg>
