<svg id="Layer_1" data-name="Layer 1" xmlns="http://www.w3.org/2000/svg" viewBox="0 0 128 43.67223"><title>Westin</title><path d="M4.724,38.456A9.89185,9.89185,0,0,0,3.10684,43.0726a7.68206,7.68206,0,0,0,1.19088,4.60781,1.3484,1.3484,0,0,1-1.11813.06607A3.47967,3.47967,0,0,1,.63086,44.8632a8.04134,8.04134,0,0,1,.9229-5.33832A11.51207,11.51207,0,0,1,3.18026,37.301c.12036-.13251.239-.26653.37129-.41414A20.84029,20.84029,0,0,1,1.09845,18.58864,20.29644,20.29644,0,0,1,10.69984,6.89589,20.99639,20.99639,0,0,1,34.84605,40.98711a20.41217,20.41217,0,0,1-15.55759,5.10622A20.835,20.835,0,0,1,4.724,38.456Zm.89267-1.28086A19.546,19.546,0,1,0,7.02543,11.53159C-.602,19.35582.628,30.32115,4.71849,35.80423a39.40327,39.40327,0,0,1,5.65941-3.94705c-.487-.2991-.92039-.556-1.34454-.82745a7.85892,7.85892,0,0,1-3.42243-4.39145,10.98394,10.98394,0,0,1,.65292-7.91117,1.44853,1.44853,0,0,1,.16988-.21495c.01533.174.02034.25925.03067.34383.10707.87671.161,1.76407.33281,2.628a8.47894,8.47894,0,0,0,4.15408,5.98731c.32736.18967.63419.41471.95112.62248.783.5133,1.56638,1.02607,2.36825,1.55128l2.416-1.39c-.22577-.15169-.37147-.25654-.52374-.35078-1.07415-.66488-2.15322-1.32189-3.22385-1.99238a7.8064,7.8064,0,0,1-3.1106-3.58346,9.1277,9.1277,0,0,1-.60319-4.93629A8.06225,8.06225,0,0,1,10.487,13.911c.17578-.26086.39186-.49455.58942-.74073a6.83252,6.83252,0,0,1-.01282,1.31941c-.20225,3.319.86609,6.00444,3.77736,7.85122,1.76673,1.12073,3.45971,2.35773,5.18659,3.54136.07245.04966.15276.08787.25943.14847l2.001-1.54785c-.166-.13823-.28206-.24856-.41134-.34024-.67717-.48027-1.35028-.96683-2.039-1.43008-.77861-.5237-1.5858-1.00553-2.3563-1.54052a9.40963,9.40963,0,0,1-2.929-3.14261,5.47118,5.47118,0,0,1-.70522-3.33547A7.53477,7.53477,0,0,1,20.588,8.3741a8.03688,8.03688,0,0,1,6.23882,2.50752,6.17577,6.17577,0,0,1,1.66067,6.51479,12.07755,12.07755,0,0,1-2.3416,4.17449c-.12092.1503-.23752.30407-.3648.46736l1.63518,1.41865a6.40391,6.40391,0,0,1,.49116-.63265c.7409-.74,1.48269-1.48,2.2477-2.19478A11.28555,11.28555,0,0,1,32.578,18.81892a3.24381,3.24381,0,0,1,3.68083.44286,4.11905,4.11905,0,0,0,1.06973.71382,1.53112,1.53112,0,0,1,.84075.75845c-.19063.09206-.349.16836-.5072.245a7.11847,7.11847,0,0,0-3.62554,3.57041,55.05156,55.05156,0,0,1-3.52326,6.7038c-.84405,1.3855-1.78331,2.71311-2.68572,4.06277a4.1644,4.1644,0,0,1-.36231.41539l-.11039-.03174c.68031-4.49226-.96791-7.99229-4.47354-10.70291L20.92441,26.5396c.57252.49814,1.09815.96438,1.6335,1.4192a6.66591,6.66591,0,0,1,1.83792,2.57739,13.79184,13.79184,0,0,1,1.00836,6.94153,4.43427,4.43427,0,0,1-.62031,1.94358,1.02429,1.02429,0,0,1-.60857.53026c-.01072-.2074-.02329-.365-.02637-.52287a11.24123,11.24123,0,0,0-2.43444-6.81086,16.84319,16.84319,0,0,0-3.18344-3.07959c-.32743-.249-.6639-.4862-1.00708-.73673l-2.29525,1.46031c.20623.14968.35221.24992.4921.35806,1.11358.8608,2.23624,1.71033,3.33494,2.58976a7.18735,7.18735,0,0,1,1.66029,1.84366,10.23738,10.23738,0,0,1,1.55863,6.19544,3.71029,3.71029,0,0,1-.54729,1.794,1.05661,1.05661,0,0,1-.65631.55732c-.00986-.18885-.02224-.34754-.02581-.50642A7.98682,7.98682,0,0,0,19.47374,38.506a12.91084,12.91084,0,0,0-2.279-2.38009,36.60829,36.60829,0,0,0-5.40364-3.4933.48156.48156,0,0,0-.54774.01881c-.60448.36012-1.22869.688-1.82518,1.0605A15.13184,15.13184,0,0,0,5.61664,37.17517ZM24.95245,21.3443c.14-.23926.25394-.42181.35621-.61067a13.6592,13.6592,0,0,0,1.42408-4.289,5.84307,5.84307,0,0,0,.03879-2.46422A5.75583,5.75583,0,0,0,20.292,9.595a6.16952,6.16952,0,0,0-1.69607.51219,3.76641,3.76641,0,0,0-1.696,5.10946A6.175,6.175,0,0,0,19.4328,17.736a51.89142,51.89142,0,0,1,5.11493,3.337C24.6628,21.15689,24.78433,21.232,24.95245,21.3443Z" transform="translate(0 -4.16389)"/><path d="M66.68781,29.68783a4.59907,4.59907,0,0,1-4.40552-2.81194c-.78119-2.19115-1.59827-4.36952-2.40056-6.55314-.07389-.20108-.15375-.4-.27677-.719-.648,1.77638-1.25747,3.44288-1.86368,5.11057-.60268,1.658-1.20206,3.31714-1.812,5.00107a6.01676,6.01676,0,0,1-3.25137-1.41354,4.14055,4.14055,0,0,1-1.041-1.687c-1.46806-4.07148-2.94736-8.13891-4.40994-12.21236A3.451,3.451,0,0,0,46.14756,12.762h4.10789l4.07943,11.2821c.11892-.29076.18949-.44859.24881-.61055q1.41426-3.86082,2.82592-7.7226c.51813-1.41663.48132-1.691-.38594-2.891a20.397,20.397,0,0,1,3.75714-.05478C62.15557,16.57714,63.54035,20.4169,64.97,24.381c.10592-.24733.16455-.36792.21021-.49324q1.57429-4.32071,3.14567-8.64251c.04313-.11857.08134-.239.12138-.35864a1.68534,1.68534,0,0,0-.32142-1.7224c-.09153-.10891-.1788-.2214-.273-.33844a34.28182,34.28182,0,0,1,4.96134-.02565Z" transform="translate(0 -4.16389)"/><path d="M117.32372,29.69757h-3.85956a3.20526,3.20526,0,0,0,.57832-2.45981q.00363-4.46918.00251-8.93837a3.87656,3.87656,0,0,0-.64433-2.55275h.72626c.939,0,1.87836.01569,2.81673-.00822a.89347.89347,0,0,1,.78267.35915q3.27352,3.86459,6.5699,7.70981c.11462.13425.23674.26211.4218.46624.01809-.2387.03918-.38873.03936-.53878q.00333-2.81694.001-5.63388a3.92543,3.92543,0,0,0-.5639-2.315H128a2.45088,2.45088,0,0,0-.14806.316,12.01341,12.01341,0,0,0-.35662,1.237,4.82594,4.82594,0,0,0-.03.91852q0,5.30883.00311,10.61766a2.3176,2.3176,0,0,1-.01037.32435c-.054.3809-.22243.55875-.60315.55933a3.4841,3.4841,0,0,1-.85425-.11129,5.22452,5.22452,0,0,1-2.73745-1.74726q-2.9121-3.4254-5.82915-6.8466c-.18676-.21928-.37491-.43736-.617-.7197a2.79224,2.79224,0,0,0-.06477.39189c-.00278,2.32939.00062,4.65879-.00286,6.98817A3.24811,3.24811,0,0,0,117.32372,29.69757Z" transform="translate(0 -4.16389)"/><path d="M93.00722,16.00469v1.861c-.23257.09573-.37666-.08592-.53652-.17164a5.03484,5.03484,0,0,0-3.67725-.42355,3.46619,3.46619,0,0,0-1.11995.51583,1.37274,1.37274,0,0,0-.04677,2.32408,2.6472,2.6472,0,0,0,.61332.33627q1.669.70631,3.34545,1.395a6.48675,6.48675,0,0,1,2.07108,1.3535,3.37356,3.37356,0,0,1,.38389,4.57395,4.22584,4.22584,0,0,1-1.62028,1.40678,8.84329,8.84329,0,0,1-5.12371,1.01684c-.77117-.0843-1.54085-.18769-2.31395-.24625a.53942.53942,0,0,1-.55291-.46795c-.18237-.6537-.4041-1.29643-.63586-2.026.18328.08872.277.13012.36706.17826a7.38468,7.38468,0,0,0,4.56309.78419,2.99035,2.99035,0,0,0,1.70538-.75386,1.4071,1.4071,0,0,0-.23742-2.39559,8.47,8.47,0,0,0-1.06748-.52262c-.94481-.40484-1.89611-.79453-2.844-1.19214A6.38983,6.38983,0,0,1,84.417,22.36608a3.57755,3.57755,0,0,1,.1744-5.43275,5.645,5.645,0,0,1,2.32708-1.10084,12.17393,12.17393,0,0,1,5.68461.01783,2.0084,2.0084,0,0,1,.20619.06453C92.85989,15.9333,92.90781,15.95909,93.00722,16.00469Z" transform="translate(0 -4.16389)"/><path d="M72.32534,15.76882H81.5791V17.692c-.04655.01239-.06988.02571-.07737.01959a3.5709,3.5709,0,0,0-2.55115-.65915c-.84458.03348-1.69154.0071-2.52495.0071A24.95,24.95,0,0,0,76.39,21.37805h3.74307V23.1244c-1.20017-.65509-2.47486-.36236-3.75619-.43769a4.028,4.028,0,0,0-.05459.44973c-.00376,1.336-.007,2.672-.00049,4.00795a1.17386,1.17386,0,0,0,1.04948,1.29306,6.41836,6.41836,0,0,0,2.687-.08252c.73813-.15182,1.45576-.4035,2.18223-.6118.07847-.0225.15531-.05075.34565-.11349l-.95789,2.06452h-9.2723a2.88981,2.88981,0,0,0,.56648-2.25692q.0037-4.685.00108-9.37A3.5993,3.5993,0,0,0,72.32534,15.76882Z" transform="translate(0 -4.16389)"/><path d="M102.3577,29.7256c-1.52461,0-2.93177.00038-4.33893-.00163a1.1126,1.1126,0,0,1-.20684-.0546,2.4773,2.4773,0,0,0,.5548-1.928q-.00661-4.76565-.00231-9.53134c-.00019-.68845-.13335-.84863-.83279-.91908a6.47474,6.47474,0,0,0-2.24818.25129c-.46723.11874-.92291.28288-1.46027.45052l.67-2.21381h11.98563l-.72961,2.18506a3.69824,3.69824,0,0,0-2.77748-.603c-.10736.01253-.21525.02536-.32075.048-.85772.18435-.89765.23378-.89769,1.09661q-.00019,4.30536,0,8.61072l.00017.27078A3.65131,3.65131,0,0,0,102.3577,29.7256Z" transform="translate(0 -4.16389)"/><path d="M107.28223,15.77318h4.47031a2.92122,2.92122,0,0,0-.157.3299c-.12394.37393-.24936.74806-.35119,1.12828a1.90585,1.90585,0,0,0-.03042.48521q-.00248,5.03657-.001,10.07315a2.93547,2.93547,0,0,0,.5299,1.83823,27.9768,27.9768,0,0,1-4.48147.066,3.20528,3.20528,0,0,0,.55063-2.41345c.00393-2.94255.00825-5.88511-.00185-8.82762A4.35369,4.35369,0,0,0,107.28223,15.77318Z" transform="translate(0 -4.16389)"/><path d="M94.132,35.02937a11.3291,11.3291,0,0,0,2.58632,2.77718,2.14957,2.14957,0,0,1-.37937.15,2.03889,2.03889,0,0,1-2.14071-.82428c-.44626-.61178-.949-1.18208-1.41651-1.77874a.52771.52771,0,0,0-.71264-.20916,12.49413,12.49413,0,0,0,.11363,2.56944h-1.2978c.00269-1.86987.06072-3.71909-.04547-5.59617a1.75837,1.75837,0,0,1,.26824-.03524c.93866-.003,1.87735-.00012,2.816-.00166a1.671,1.671,0,0,1,1.01715.30954,1.22974,1.22974,0,0,1,.15877,1.92726A9.21924,9.21924,0,0,1,94.132,35.02937ZM92.09031,32.581v1.99786a1.71886,1.71886,0,0,0,1.45472-.21454.95467.95467,0,0,0-.185-1.6963A1.99188,1.99188,0,0,0,92.09031,32.581Z" transform="translate(0 -4.16389)"/><path d="M88.677,37.70177a2.95012,2.95012,0,0,1-2.66881-.444,3.16846,3.16846,0,0,1-1.84526.7446,3.76349,3.76349,0,0,1-1.17431-.102,1.64247,1.64247,0,0,1-1.02724-2.449,8.35185,8.35185,0,0,1,.90405-1.12135,2.97667,2.97667,0,0,1-.19461-.23358,3.27856,3.27856,0,0,1-.4097-.62681,1.0244,1.0244,0,0,1,.73894-1.47034,2.83691,2.83691,0,0,1,1.60213.00421.87925.87925,0,0,1,.63842,1.25622,2.187,2.187,0,0,1-.27917.52,5.75881,5.75881,0,0,1-.44191.48995A17.333,17.333,0,0,0,88.677,37.70177Zm-5.034-2.67749a5.861,5.861,0,0,0-.5875.79384,1.12749,1.12749,0,0,0,.476,1.5265,1.98681,1.98681,0,0,0,2.02643-.54545Zm.15992-1.36021a6.20708,6.20708,0,0,0,.41237-.68479.3629.3629,0,0,0-.183-.46112.47076.47076,0,0,0-.55794.00934.33344.33344,0,0,0-.09758.47721C83.47931,33.19037,83.60615,33.36261,83.80291,33.66407Z" transform="translate(0 -4.16389)"/><path d="M50.67487,32.10286h1.316v2.21023a11.54479,11.54479,0,0,0,2.65058.01516V32.10913H55.892c-.00934.93919-.03519,1.86635-.0231,2.793a16.07277,16.07277,0,0,0,.09085,2.81981H54.64482V34.9924H51.9682a14.08393,14.08393,0,0,0,.05966,2.7126H50.68778A42.22132,42.22132,0,0,0,50.67487,32.10286Z" transform="translate(0 -4.16389)"/><path d="M115.17823,35.51939a9.99723,9.99723,0,0,0,2.10883,2.27182,1.66181,1.66181,0,0,1-1.93222-.499c-.38055-.45657-.74337-.92825-1.10417-1.40077-.15529-.20337-.31747-.34263-.59541-.22118v2.05105H112.3824c.08512-1.56967.05861-3.12387.0234-4.75224-.0475.0511-.02588.00735-.00394.00719.88153-.00642,1.76487-.0448,2.64412-.00122a1.231,1.231,0,0,1,1.26207,1.27358,1.09054,1.09054,0,0,1-.57193.97643C115.56561,35.32254,115.38874,35.40884,115.17823,35.51939Zm-1.544-.22274a1.41393,1.41393,0,0,0,.9639-.09847.94643.94643,0,0,0,.56148-1.10624.83159.83159,0,0,0-.88352-.70429,5.90526,5.90526,0,0,0-.64186.04Z" transform="translate(0 -4.16389)"/><path d="M59.40036,37.97479a2.91358,2.91358,0,0,1-1.963-.68942,2.46823,2.46823,0,0,1-.0343-3.82915,3.12449,3.12449,0,0,1,3.93988-.04582,2.473,2.473,0,0,1-.05045,3.93336A2.88824,2.88824,0,0,1,59.40036,37.97479Zm1.79879-2.62014a2.2905,2.2905,0,0,0-.71382-1.75214,1.54748,1.54748,0,0,0-2.1951.02071,2.51237,2.51237,0,0,0,.00391,3.47207,1.55092,1.55092,0,0,0,2.19581.0136A2.2917,2.2917,0,0,0,61.19915,35.35465Z" transform="translate(0 -4.16389)"/><path d="M108.79667,37.97531a2.9149,2.9149,0,0,1-2.01335-.72856,2.458,2.458,0,0,1-.02492-3.75793,3.11139,3.11139,0,0,1,4.10161.03229,2.46471,2.46471,0,0,1-.09757,3.75707A2.886,2.886,0,0,1,108.79667,37.97531Zm-1.80412-2.52a2.2245,2.2245,0,0,0,.70641,1.65121,1.551,1.551,0,0,0,2.1957-.00887,2.51438,2.51438,0,0,0,.00877-3.47208,1.54847,1.54847,0,0,0-2.19507-.02561A2.36471,2.36471,0,0,0,106.99256,35.4553Z" transform="translate(0 -4.16389)"/><path d="M78.61171,33.00227l-.03026.57264c-.387-.063-.73488-.14419-1.08656-.167a1.4056,1.4056,0,0,0-.57234.125.499.499,0,0,0-.379.474.53038.53038,0,0,0,.34713.50285c.3294.14519.66615.274.99313.42426a4.11335,4.11335,0,0,1,.71334.37718,1.22955,1.22955,0,0,1-.02862,2.11865,2.91774,2.91774,0,0,1-1.84759.48353c-.14359-.00587-.286-.03639-.42943-.05145-.64539-.06786-.64544-.06732-.80379-.81667a2.5323,2.5323,0,0,0,.34748.10454,9.3004,9.3004,0,0,0,1.17066.14015,1.15,1.15,0,0,0,.60107-.20132.49077.49077,0,0,0-.032-.90317c-.36264-.19654-.75984-.32817-1.13246-.50781a3.59415,3.59415,0,0,1-.74368-.42985,1.21969,1.21969,0,0,1,.05716-1.95784,1.311,1.311,0,0,1,.27424-.17141A3.95317,3.95317,0,0,1,78.61171,33.00227Z" transform="translate(0 -4.16389)"/><path d="M101.70353,37.12989a13.74918,13.74918,0,0,0,1.4085.16194,1.31189,1.31189,0,0,0,.702-.22663.47134.47134,0,0,0-.04258-.86736c-.36077-.2006-.75948-.33171-1.13135-.51405a3.68924,3.68924,0,0,1-.78832-.4604,1.18725,1.18725,0,0,1,.07059-1.91428,2.44726,2.44726,0,0,1,.77912-.35283,3.51094,3.51094,0,0,1,2.03154.07868v.53115a9.7856,9.7856,0,0,0-1.08281-.15557,1.28981,1.28981,0,0,0-.618.15809.48386.48386,0,0,0,.005.92037c.29914.16379.62945.26961.93962.41463a4.71757,4.71757,0,0,1,.81151.42219,1.21235,1.21235,0,0,1-.01355,2.085,2.90126,2.90126,0,0,1-1.84462.50485c-.16174-.00488-.32242-.03906-.484-.05581C101.80748,37.79366,101.80742,37.79425,101.70353,37.12989Z" transform="translate(0 -4.16389)"/><path d="M124.89414,33.022v.55493a7.89346,7.89346,0,0,0-1.00752-.168,1.3586,1.3586,0,0,0-.67221.1517A.7268.7268,0,0,0,122.87283,34a.48146.48146,0,0,0,.33521.50415c.34715.15106.70156.286,1.04475.44534a3.81007,3.81007,0,0,1,.70733.38954,1.20833,1.20833,0,0,1-.00972,2.05346,2.87651,2.87651,0,0,1-1.89254.52116c-.1798-.00671-.35839-.0423-.53794-.0607-.57915-.05935-.58868-.06943-.64609-.73029.43442.06176.86918.15073,1.3075.17455a1.22794,1.22794,0,0,0,.669-.15988.88178.88178,0,0,0,.35734-.49566c.06-.23727-.146-.39407-.34964-.48856-.35969-.16686-.73351-.304-1.08916-.47855a3.51653,3.51653,0,0,1-.78318-.46835,1.17861,1.17861,0,0,1,.06652-1.87784,2.666,2.666,0,0,1,.87828-.38975A3.7128,3.7128,0,0,1,124.89414,33.022Z" transform="translate(0 -4.16389)"/><path d="M68.69941,33.3689v1.49084h1.27686l.04252.51625H68.69208a10.32516,10.32516,0,0,0,.00966,1.58531.38973.38973,0,0,0,.42183.34734c.34052-.006.68206-.02535,1.02025-.06425a5.20012,5.20012,0,0,0,.6451-.16489l-.254.63724H67.4667A40.40646,40.40646,0,0,0,67.45159,32.98H70.481v.48364Z" transform="translate(0 -4.16389)"/><path d="M97.46664,37.72118c.05553-1.585.05935-3.14472-.00393-4.74117h3.0176v.58211a3.77279,3.77279,0,0,0-1.77572-.13894V34.8529l1.25181.05562.04236.4663H98.6842c0,.51776-.01469,1.03462.00632,1.55a.39755.39755,0,0,0,.44306.38472,10.08124,10.08124,0,0,0,1.02-.071,5.7797,5.7797,0,0,0,.645-.15709l-.28507.6397Z" transform="translate(0 -4.16389)"/><path d="M121.35866,32.975l-.20462.65827a1.66056,1.66056,0,0,0-1.38628.01421c.03106,1.32851-.069,2.67492.07351,4.05827h-1.3291a26.39352,26.39352,0,0,0,.01325-4.15339c-.46744-.19927-.93156.01085-1.47714.11151l.20064-.68887Z" transform="translate(0 -4.16389)"/><path d="M65.28437,37.72185H63.96205v-4.168a2.77647,2.77647,0,0,0-1.49838.10345l.20069-.67867h4.1123l-.19168.59988a8.86329,8.86329,0,0,0-.98644-.0725c-.3587.01255-.41276.07933-.4149.42149q-.01,1.59652.00395,3.19312A4.07518,4.07518,0,0,0,65.28437,37.72185Z" transform="translate(0 -4.16389)"/><path d="M71.61439,32.97612h1.286c-.01956.49119-.04891.95372-.05391,1.41651-.00819.75717-.00545,1.51456.00208,2.27177.00542.545.12381.66813.67776.65706a7.10575,7.10575,0,0,0,.90805-.11208c.15266-.023.30217-.067.54021-.12135l-.30172.63336h-3.016C71.6768,36.13768,71.72657,34.57881,71.61439,32.97612Z" transform="translate(0 -4.16389)"/></svg>